SplineFontDB: 3.2
FontName: Faelz
FullName: Daez
FamilyName: Daez
Weight: Normal
Copyright: 
Version: 1
ItalicAngle: 0
UnderlinePosition: -100
UnderlineWidth: 50
Ascent: 800
Descent: 200
InvalidEm: 0
sfntRevision: 0x00010000
LayerCount: 2
Layer: 0 1 "Back" 1
Layer: 1 1 "Fore" 0
XUID: [1021 497 -1877248868 12261001]
StyleMap: 0x0040
FSType: 0
OS2Version: 0
OS2_WeightWidthSlopeOnly: 0
OS2_UseTypoMetrics: 0
CreationTime: 1091488680
ModificationTime: 1598280518
PfmFamily: 33
TTFWeight: 400
TTFWidth: 5
LineGap: 9
VLineGap: 0
Panose: 0 0 0 0 0 0 0 0 0 0
OS2TypoAscent: 750
OS2TypoAOffset: 0
OS2TypoDescent: -170
OS2TypoDOffset: 0
OS2TypoLinegap: 30
OS2WinAscent: 700
OS2WinAOffset: 0
OS2WinDescent: 175
OS2WinDOffset: 0
HheadAscent: 750
HheadAOffset: 0
HheadDescent: -170
HheadDOffset: 0
OS2SubXSize: 700
OS2SubYSize: 650
OS2SubXOff: 0
OS2SubYOff: 140
OS2SupXSize: 700
OS2SupYSize: 650
OS2SupXOff: 0
OS2SupYOff: 477
OS2StrikeYSize: 50
OS2StrikeYPos: 250
OS2CapHeight: 700
OS2XHeight: 500
OS2Vendor: 'daez'
OS2CodePages: 00120004.00000000
OS2UnicodeRanges: 80000207.00000000.00000000.00000000
MarkAttachClasses: 1
DEI: 91125
ShortTable: cvt  2
  33
  633
EndShort
ShortTable: maxp 16
  1
  0
  11293
  333
  26
  39
  3
  2
  0
  1
  1
  0
  64
  46
  2
  2
EndShort
LangName: 1033 "" "" "Regular" "FontForge : Daez : 30-7-2020" "" "" "" "" "" "" "" "" "" "" "" "" "" "Regular"
GaspTable: 1 65535 3 0
Encoding: UnicodeFull
Compacted: 1
UnicodeInterp: none
NameList: AGL For New Fonts
DisplaySize: -128
AntiAlias: 1
FitToEm: 0
WinInfo: 0 14 14
BeginPrivate: 0
EndPrivate
TeXData: 1 0 0 104857 52428 34952 721420 1048576 34952 783286 444596 497025 792723 393216 433062 380633 303038 157286 324010 404750 52429 2506097 1059062 262144
BeginChars: 1114158 184

StartChar: exclam
Encoding: 33 33 1
Width: 164
Flags: W
LayerCount: 2
Fore
SplineSet
0 -128 m 1,0,-1
 0 -64 l 1,1,-1
 64 -64 l 1,2,-1
 64 -128 l 1,3,-1
 0 -128 l 1,0,-1
64 700 m 1,4,-1
 64 0 l 1,5,-1
 0 0 l 1,6,-1
 0 700 l 1,7,-1
 64 700 l 1,4,-1
EndSplineSet
EndChar

StartChar: quotedbl
Encoding: 34 34 2
Width: 220
Flags: W
LayerCount: 2
Fore
SplineSet
60 562 m 1,0,1
 82 651 82 651 120 700 c 1,2,-1
 0 700 l 1,3,4
 40 648 40 648 60 562 c 1,0,1
EndSplineSet
EndChar

StartChar: numbersign
Encoding: 35 35 3
Width: 765
Flags: W
LayerCount: 2
Fore
SplineSet
445 64 m 1,0,1
 467 64 467 64 486 71 c 128,-1,2
 505 78 505 78 519.5 93.5 c 128,-1,3
 534 109 534 109 545.5 127 c 128,-1,4
 557 145 557 145 565.5 174.5 c 128,-1,5
 574 204 574 204 580 230.5 c 128,-1,6
 586 257 586 257 590 298.5 c 128,-1,7
 594 340 594 340 596 372.5 c 128,-1,8
 598 405 598 405 599 456.5 c 128,-1,9
 600 508 600 508 600.5 544.5 c 128,-1,10
 601 581 601 581 601 639 c 2,11,-1
 601 700 l 1,12,-1
 445 700 l 1,13,-1
 420 525 l 1,14,-1
 356 525 l 1,15,-1
 381 700 l 1,16,-1
 284 700 l 1,17,-1
 309 525 l 1,18,-1
 245 525 l 1,19,-1
 220 700 l 1,20,-1
 64 700 l 1,21,-1
 64 639 l 2,22,23
 64 581 64 581 64.5 544.5 c 128,-1,24
 65 508 65 508 66 456.5 c 128,-1,25
 67 405 67 405 69 372.5 c 128,-1,26
 71 340 71 340 75 298.5 c 128,-1,27
 79 257 79 257 85 230.5 c 128,-1,28
 91 204 91 204 99.5 174.5 c 128,-1,29
 108 145 108 145 119.5 127 c 128,-1,30
 131 109 131 109 145.5 93.5 c 128,-1,31
 160 78 160 78 179 71 c 128,-1,32
 198 64 198 64 220 64 c 1,33,34
 220 223 220 223 253.5 312.5 c 128,-1,35
 287 402 287 402 332 402 c 0,36,37
 378 402 378 402 411.5 313 c 128,-1,38
 445 224 445 224 445 64 c 1,0,1
381 64 m 0,39,40
 381 148 381 148 374 209 c 128,-1,41
 367 270 367 270 356 298 c 128,-1,42
 345 326 345 326 332 326 c 0,43,44
 320 326 320 326 309 298 c 128,-1,45
 298 270 298 270 291 209 c 128,-1,46
 284 148 284 148 284 64 c 0,47,48
 284 41 284 41 279 27 c 128,-1,49
 274 13 274 13 263 7.5 c 128,-1,50
 252 2 252 2 244 1 c 128,-1,51
 236 0 236 0 220 0 c 0,52,53
 188 0 188 0 161.5 8.5 c 128,-1,54
 135 17 135 17 114.5 36.5 c 128,-1,55
 94 56 94 56 77.5 78 c 128,-1,56
 61 100 61 100 49.5 135 c 128,-1,57
 38 170 38 170 29.5 201.5 c 128,-1,58
 21 233 21 233 15.5 281 c 128,-1,59
 10 329 10 329 7 365.5 c 128,-1,60
 4 402 4 402 2.5 459 c 128,-1,61
 1 516 1 516 0.5 555 c 128,-1,62
 0 594 0 594 0 655 c 2,63,-1
 0 700 l 1,64,-1
 0 764 l 1,65,-1
 665 764 l 1,66,-1
 665 700 l 1,67,-1
 665 655 l 2,68,69
 665 594 665 594 664.5 555 c 128,-1,70
 664 516 664 516 662.5 459 c 128,-1,71
 661 402 661 402 658 365.5 c 128,-1,72
 655 329 655 329 649.5 281 c 128,-1,73
 644 233 644 233 635.5 201.5 c 128,-1,74
 627 170 627 170 615.5 135 c 128,-1,75
 604 100 604 100 587.5 78 c 128,-1,76
 571 56 571 56 550.5 36.5 c 128,-1,77
 530 17 530 17 503.5 8.5 c 128,-1,78
 477 0 477 0 445 0 c 0,79,80
 429 0 429 0 421 1 c 128,-1,81
 413 2 413 2 402 7.5 c 128,-1,82
 391 13 391 13 386 27 c 128,-1,83
 381 41 381 41 381 64 c 0,39,40
EndSplineSet
EndChar

StartChar: percent
Encoding: 37 37 4
Width: 521
Flags: W
LayerCount: 2
Fore
SplineSet
64 700 m 1,0,-1
 128 700 l 1,1,-1
 128 251 l 1,2,-1
 357 700 l 1,3,-1
 421 700 l 1,4,-1
 64 0 l 1,5,-1
 0 0 l 1,6,-1
 64 125 l 1,7,-1
 64 700 l 1,0,-1
EndSplineSet
EndChar

StartChar: quotesingle
Encoding: 39 39 5
Width: 154
Flags: W
LayerCount: 2
Fore
SplineSet
154 752 m 1,0,1
 99 770 99 770 74 800 c 1,2,-1
 74 704 l 1,3,4
 99 734 99 734 154 752 c 1,0,1
0 598 m 1,5,6
 18 653 18 653 48 678 c 1,7,-1
 -48 678 l 1,8,9
 -18 653 -18 653 0 598 c 1,5,6
-48 704 m 1,10,-1
 48 704 l 1,11,-1
 48 800 l 1,12,13
 12 800 12 800 -18 770 c 128,-1,14
 -48 740 -48 740 -48 704 c 1,10,-1
EndSplineSet
EndChar

StartChar: asterisk
Encoding: 42 42 6
Width: 325
Flags: W
LayerCount: 2
Fore
SplineSet
225 64 m 2,0,-1
 225 0 l 1,1,-1
 0 0 l 1,2,-1
 0 64 l 1,3,-1
 160 64 l 1,4,5
 160 143 160 143 143.5 204.5 c 128,-1,6
 127 266 127 266 103.5 308 c 128,-1,7
 80 350 80 350 56.5 392 c 128,-1,8
 33 434 33 434 16.5 495.5 c 128,-1,9
 0 557 0 557 0 636 c 2,10,-1
 0 700 l 1,11,-1
 225 700 l 1,12,-1
 225 636 l 1,13,-1
 64 636 l 1,14,15
 64 557 64 557 80.5 495.5 c 128,-1,16
 97 434 97 434 120.5 392 c 128,-1,17
 144 350 144 350 168 308 c 128,-1,18
 192 266 192 266 208.5 204.5 c 128,-1,19
 225 143 225 143 225 64 c 2,0,-1
EndSplineSet
EndChar

StartChar: plus
Encoding: 43 43 7
Width: 497
Flags: W
LayerCount: 2
Fore
SplineSet
0 323 m 1,0,-1
 0 364 l 1,1,-1
 178 364 l 1,2,-1
 178 536 l 1,3,-1
 221 536 l 1,4,-1
 221 364 l 1,5,-1
 397 364 l 1,6,-1
 397 323 l 1,7,-1
 221 323 l 1,8,-1
 221 152 l 1,9,-1
 178 152 l 1,10,-1
 178 323 l 1,11,-1
 0 323 l 1,0,-1
EndSplineSet
EndChar

StartChar: comma
Encoding: 44 44 8
Width: 196
Flags: W
LayerCount: 2
Fore
SplineSet
48 -80 m 1,0,1
 66 -25 66 -25 96 0 c 1,2,-1
 96 151 l 1,3,-1
 0 151 l 1,4,-1
 0 0 l 1,5,6
 30 -25 30 -25 48 -80 c 1,0,1
EndSplineSet
EndChar

StartChar: hyphen
Encoding: 45 45 9
Width: 250
Flags: W
LayerCount: 2
Fore
SplineSet
0 322 m 1,0,-1
 0 366 l 1,1,-1
 150 366 l 1,2,-1
 150 322 l 1,3,-1
 0 322 l 1,0,-1
EndSplineSet
EndChar

StartChar: period
Encoding: 46 46 10
Width: 196
Flags: W
LayerCount: 2
Fore
SplineSet
0 311 m 1,0,-1
 0 215 l 1,1,-1
 96 215 l 1,2,3
 96 251 96 251 66 281 c 128,-1,4
 36 311 36 311 0 311 c 1,0,-1
48 -80 m 1,5,6
 66 -25 66 -25 96 0 c 1,7,-1
 96 151 l 1,8,-1
 0 151 l 1,9,-1
 0 0 l 1,10,11
 30 -25 30 -25 48 -80 c 1,5,6
EndSplineSet
EndChar

StartChar: slash
Encoding: 47 47 11
Width: 493
Flags: W
LayerCount: 2
Fore
SplineSet
0 -100 m 1,0,-1
 353 800 l 1,1,-1
 393 800 l 1,2,-1
 40 -100 l 1,3,-1
 0 -100 l 1,0,-1
EndSplineSet
EndChar

StartChar: zero
Encoding: 48 48 12
Width: 325
Flags: W
LayerCount: 2
Fore
SplineSet
80 0 m 1,0,-1
 80 350 l 1,1,-1
 145 350 l 1,2,-1
 145 0 l 1,3,-1
 225 0 l 1,4,-1
 225 -64 l 1,5,-1
 145 -64 l 1,6,-1
 145 -128 l 1,7,-1
 80 -128 l 1,8,-1
 80 -64 l 1,9,-1
 0 -64 l 1,10,-1
 0 0 l 1,11,-1
 80 0 l 1,0,-1
EndSplineSet
EndChar

StartChar: one
Encoding: 49 49 13
Width: 325
Flags: W
LayerCount: 2
Fore
SplineSet
80 0 m 1,0,-1
 80 700 l 1,1,-1
 145 700 l 1,2,-1
 145 0 l 1,3,-1
 225 0 l 1,4,-1
 225 -64 l 1,5,-1
 145 -64 l 1,6,-1
 145 -128 l 1,7,-1
 80 -128 l 1,8,-1
 80 -64 l 1,9,-1
 0 -64 l 1,10,-1
 0 0 l 1,11,-1
 80 0 l 1,0,-1
EndSplineSet
EndChar

StartChar: two
Encoding: 50 50 14
Width: 325
Flags: W
LayerCount: 2
Fore
SplineSet
80 0 m 1,0,-1
 80 15 l 1,1,2
 45 49 45 49 22.5 151.5 c 128,-1,3
 0 254 0 254 0 412 c 2,4,-1
 0 700 l 1,5,-1
 64 700 l 1,6,-1
 64 412 l 2,7,8
 64 304 64 304 71 225.5 c 128,-1,9
 78 147 78 147 89 110.5 c 128,-1,10
 100 74 100 74 112 74 c 0,11,12
 125 74 125 74 136 110.5 c 128,-1,13
 147 147 147 147 154 225.5 c 128,-1,14
 161 304 161 304 161 412 c 2,15,-1
 161 700 l 1,16,-1
 225 700 l 1,17,-1
 225 412 l 2,18,19
 225 254 225 254 202.5 151.5 c 128,-1,20
 180 49 180 49 145 15 c 1,21,-1
 145 0 l 1,22,-1
 225 0 l 1,23,-1
 225 -64 l 1,24,-1
 145 -64 l 1,25,-1
 145 -128 l 1,26,-1
 80 -128 l 1,27,-1
 80 -64 l 1,28,-1
 0 -64 l 1,29,-1
 0 0 l 1,30,-1
 80 0 l 1,0,-1
EndSplineSet
EndChar

StartChar: three
Encoding: 51 51 15
Width: 325
Flags: W
LayerCount: 2
Fore
SplineSet
161 350 m 0,0,1
 161 442 161 442 153.5 509 c 128,-1,2
 146 576 146 576 135 607 c 128,-1,3
 124 638 124 638 112 638 c 128,-1,4
 100 638 100 638 89 607 c 128,-1,5
 78 576 78 576 71 509 c 128,-1,6
 64 442 64 442 64 350 c 0,7,8
 64 256 64 256 71 187 c 128,-1,9
 78 118 78 118 89 86 c 128,-1,10
 100 54 100 54 112 54 c 128,-1,11
 124 54 124 54 135 86 c 128,-1,12
 146 118 146 118 153.5 187 c 128,-1,13
 161 256 161 256 161 350 c 0,0,1
225 350 m 0,14,15
 225 78 225 78 145 0 c 1,16,-1
 225 0 l 1,17,-1
 225 -64 l 1,18,-1
 145 -64 l 1,19,-1
 145 -128 l 1,20,-1
 80 -128 l 1,21,-1
 80 -64 l 1,22,-1
 0 -64 l 1,23,-1
 0 0 l 1,24,-1
 80 0 l 1,25,26
 0 78 0 78 0 350 c 0,27,28
 0 515 0 515 33.5 607.5 c 128,-1,29
 67 700 67 700 112 700 c 0,30,31
 158 700 158 700 191.5 607.5 c 128,-1,32
 225 515 225 515 225 350 c 0,14,15
EndSplineSet
EndChar

StartChar: four
Encoding: 52 52 16
Width: 325
Flags: W
LayerCount: 2
Fore
SplineSet
64 286 m 1,0,-1
 64 169 l 2,1,2
 64 125 64 125 78.5 100 c 128,-1,3
 93 75 93 75 112 75 c 0,4,5
 132 75 132 75 146.5 100 c 128,-1,6
 161 125 161 125 161 169 c 2,7,-1
 161 286 l 1,8,-1
 64 286 l 1,0,-1
225 169 m 2,9,10
 225 104 225 104 203 63 c 128,-1,11
 181 22 181 22 145 7 c 1,12,-1
 145 0 l 1,13,-1
 225 0 l 1,14,-1
 225 -64 l 1,15,-1
 145 -64 l 1,16,-1
 145 -128 l 1,17,-1
 80 -128 l 1,18,-1
 80 -64 l 1,19,-1
 0 -64 l 1,20,-1
 0 0 l 1,21,-1
 80 0 l 1,22,-1
 80 7 l 1,23,24
 44 22 44 22 22 63 c 128,-1,25
 0 104 0 104 0 169 c 2,26,-1
 0 700 l 1,27,-1
 64 700 l 1,28,-1
 64 550 l 1,29,-1
 225 550 l 1,30,-1
 225 486 l 1,31,-1
 64 486 l 1,32,-1
 64 350 l 1,33,-1
 225 350 l 1,34,-1
 225 169 l 2,9,10
EndSplineSet
EndChar

StartChar: five
Encoding: 53 53 17
Width: 325
Flags: W
LayerCount: 2
Fore
SplineSet
225 286 m 1,0,-1
 64 286 l 1,1,-1
 64 169 l 2,2,3
 64 125 64 125 78.5 100 c 128,-1,4
 93 75 93 75 112 75 c 0,5,6
 132 75 132 75 146.5 100 c 128,-1,7
 161 125 161 125 161 169 c 1,8,-1
 225 169 l 1,9,10
 225 104 225 104 202.5 62.5 c 128,-1,11
 180 21 180 21 145 7 c 1,12,-1
 145 0 l 1,13,-1
 225 0 l 1,14,-1
 225 -64 l 1,15,-1
 145 -64 l 1,16,-1
 145 -128 l 1,17,-1
 80 -128 l 1,18,-1
 80 -64 l 1,19,-1
 0 -64 l 1,20,-1
 0 0 l 1,21,-1
 80 0 l 1,22,-1
 80 7 l 1,23,24
 45 21 45 21 22.5 63.5 c 128,-1,25
 0 106 0 106 0 169 c 2,26,-1
 0 350 l 2,27,28
 0 420 0 420 1.5 455.5 c 128,-1,29
 3 491 3 491 14.5 546.5 c 128,-1,30
 26 602 26 602 48.5 629.5 c 128,-1,31
 71 657 71 657 115.5 678.5 c 128,-1,32
 160 700 160 700 225 700 c 1,33,-1
 225 636 l 1,34,35
 178 636 178 636 146.5 618.5 c 128,-1,36
 115 601 115 601 99 578.5 c 128,-1,37
 83 556 83 556 74.5 511 c 128,-1,38
 66 466 66 466 65 436.5 c 128,-1,39
 64 407 64 407 64 350 c 1,40,-1
 225 350 l 1,41,-1
 225 286 l 1,0,-1
EndSplineSet
EndChar

StartChar: six
Encoding: 54 54 18
Width: 325
Flags: W
LayerCount: 2
Fore
SplineSet
0 425 m 1,0,1
 0 700 0 700 112 700 c 0,2,3
 225 700 225 700 225 425 c 1,4,-1
 161 425 l 1,5,6
 161 507 161 507 153.5 553.5 c 128,-1,7
 146 600 146 600 136.5 612.5 c 128,-1,8
 127 625 127 625 112 625 c 0,9,10
 98 625 98 625 88.5 613 c 128,-1,11
 79 601 79 601 71.5 554 c 128,-1,12
 64 507 64 507 64 425 c 1,13,-1
 0 425 l 1,0,1
145 0 m 1,14,-1
 225 0 l 1,15,-1
 225 -64 l 1,16,-1
 145 -64 l 1,17,-1
 145 -128 l 1,18,-1
 80 -128 l 1,19,-1
 80 -64 l 1,20,-1
 0 -64 l 1,21,-1
 0 0 l 1,22,-1
 80 0 l 1,23,-1
 80 6 l 1,24,25
 0 42 0 42 0 275 c 1,26,-1
 64 275 l 1,27,28
 64 193 64 193 71.5 146 c 128,-1,29
 79 99 79 99 88.5 86.5 c 128,-1,30
 98 74 98 74 112 74 c 0,31,32
 127 74 127 74 136.5 86.5 c 128,-1,33
 146 99 146 99 153.5 146 c 128,-1,34
 161 193 161 193 161 275 c 1,35,-1
 225 275 l 1,36,37
 225 42 225 42 145 7 c 1,38,-1
 145 0 l 1,14,-1
EndSplineSet
EndChar

StartChar: seven
Encoding: 55 55 19
Width: 325
Flags: W
LayerCount: 2
Fore
SplineSet
0 550 m 1,0,-1
 161 550 l 1,1,2
 161 550 161 550 161 636 c 2,3,-1
 161 700 l 1,4,-1
 225 700 l 1,5,-1
 225 636 l 2,6,7
 225 532 225 532 224.5 478 c 128,-1,8
 224 424 224 424 219 336.5 c 128,-1,9
 214 249 214 249 205 196.5 c 128,-1,10
 196 144 196 144 178 89 c 128,-1,11
 160 34 160 34 133 0 c 1,12,-1
 225 0 l 1,13,-1
 225 -64 l 1,14,-1
 145 -64 l 1,15,-1
 145 -128 l 1,16,-1
 80 -128 l 1,17,-1
 80 -64 l 1,18,-1
 0 -64 l 1,19,-1
 0 0 l 1,20,21
 40 0 40 0 69 25 c 128,-1,22
 98 50 98 50 115 90 c 128,-1,23
 132 130 132 130 142 196 c 128,-1,24
 152 262 152 262 155.5 327.5 c 128,-1,25
 159 393 159 393 160 486 c 1,26,-1
 0 486 l 1,27,-1
 0 550 l 1,0,-1
EndSplineSet
EndChar

StartChar: eight
Encoding: 56 56 20
Width: 325
Flags: W
LayerCount: 2
Fore
SplineSet
97 303 m 1,0,1
 119 273 119 273 130 219 c 128,-1,2
 141 165 141 165 143 121.5 c 128,-1,3
 145 78 145 78 145 0 c 1,4,-1
 225 0 l 1,5,-1
 225 -64 l 1,6,-1
 145 -64 l 1,7,-1
 145 -128 l 1,8,-1
 80 -128 l 1,9,-1
 80 -64 l 1,10,-1
 0 -64 l 1,11,-1
 0 0 l 1,12,-1
 80 0 l 1,13,14
 80 36 80 36 80 54 c 128,-1,15
 80 72 80 72 79 104.5 c 128,-1,16
 78 137 78 137 76 154 c 128,-1,17
 74 171 74 171 70 196 c 128,-1,18
 66 221 66 221 60 234 c 128,-1,19
 54 247 54 247 46 260.5 c 128,-1,20
 38 274 38 274 26.5 280 c 128,-1,21
 15 286 15 286 0 286 c 1,22,-1
 0 350 l 1,23,24
 71 350 71 350 110.5 392.5 c 128,-1,25
 150 435 150 435 150 493 c 128,-1,26
 150 551 150 551 110.5 593.5 c 128,-1,27
 71 636 71 636 0 636 c 1,28,-1
 0 700 l 1,29,30
 106 700 106 700 165.5 638.5 c 128,-1,31
 225 577 225 577 225 493 c 0,32,33
 225 432 225 432 191.5 380 c 128,-1,34
 158 328 158 328 97 303 c 1,0,1
EndSplineSet
EndChar

StartChar: nine
Encoding: 57 57 21
Width: 325
Flags: W
LayerCount: 2
Fore
SplineSet
225 0 m 1,0,-1
 225 -64 l 1,1,-1
 145 -64 l 1,2,-1
 145 -128 l 1,3,-1
 80 -128 l 1,4,-1
 80 -64 l 1,5,-1
 0 -64 l 1,6,-1
 0 0 l 1,7,-1
 80 0 l 1,8,-1
 80 111 l 1,9,-1
 0 111 l 1,10,-1
 0 175 l 1,11,-1
 80 175 l 1,12,-1
 80 375 l 1,13,14
 45 403 45 403 22.5 487 c 128,-1,15
 0 571 0 571 0 700 c 1,16,-1
 64 700 l 1,17,18
 64 616 64 616 71 555 c 128,-1,19
 78 494 78 494 89 466 c 128,-1,20
 100 438 100 438 112 438 c 128,-1,21
 124 438 124 438 135 466 c 128,-1,22
 146 494 146 494 153.5 555.5 c 128,-1,23
 161 617 161 617 161 700 c 1,24,-1
 225 700 l 1,25,26
 225 571 225 571 202.5 487 c 128,-1,27
 180 403 180 403 145 375 c 1,28,-1
 145 175 l 1,29,-1
 225 175 l 1,30,-1
 225 111 l 1,31,-1
 145 111 l 1,32,-1
 145 0 l 1,33,-1
 225 0 l 1,0,-1
EndSplineSet
EndChar

StartChar: colon
Encoding: 58 58 22
Width: 228
Flags: W
LayerCount: 2
Fore
SplineSet
0 536 m 2,0,1
 0 569 0 569 1 585.5 c 128,-1,2
 2 602 2 602 8.5 628 c 128,-1,3
 15 654 15 654 27.5 667 c 128,-1,4
 40 680 40 680 65.5 690 c 128,-1,5
 91 700 91 700 128 700 c 1,6,-1
 128 636 l 1,7,8
 84 636 84 636 74 614.5 c 128,-1,9
 64 593 64 593 64 536 c 2,10,-1
 64 472 l 1,11,-1
 0 472 l 1,12,-1
 0 536 l 2,0,1
0 164 m 2,13,-1
 0 228 l 1,14,-1
 64 228 l 1,15,-1
 64 164 l 2,16,17
 64 140 64 140 64.5 128.5 c 128,-1,18
 65 117 65 117 68 101.5 c 128,-1,19
 71 86 71 86 77.5 80 c 128,-1,20
 84 74 84 74 96.5 69 c 128,-1,21
 109 64 109 64 128 64 c 1,22,-1
 128 0 l 1,23,24
 91 0 91 0 65.5 10 c 128,-1,25
 40 20 40 20 27.5 33 c 128,-1,26
 15 46 15 46 8.5 72 c 128,-1,27
 2 98 2 98 1 114.5 c 128,-1,28
 0 131 0 131 0 164 c 2,13,-1
EndSplineSet
EndChar

StartChar: semicolon
Encoding: 59 59 23
Width: 228
Flags: W
LayerCount: 2
Fore
SplineSet
0 536 m 2,0,1
 0 569 0 569 1 585.5 c 128,-1,2
 2 602 2 602 8.5 628 c 128,-1,3
 15 654 15 654 27.5 667 c 128,-1,4
 40 680 40 680 65.5 690 c 128,-1,5
 91 700 91 700 128 700 c 1,6,-1
 128 636 l 1,7,8
 84 636 84 636 74 614.5 c 128,-1,9
 64 593 64 593 64 536 c 2,10,-1
 64 472 l 1,11,-1
 0 472 l 1,12,-1
 0 536 l 2,0,1
64 228 m 1,13,-1
 64 0 l 1,14,-1
 0 0 l 1,15,-1
 0 228 l 1,16,-1
 64 228 l 1,13,-1
EndSplineSet
EndChar

StartChar: equal
Encoding: 61 61 24
Width: 462
Flags: W
LayerCount: 2
Fore
SplineSet
0 411 m 1,0,-1
 0 453 l 1,1,-1
 362 453 l 1,2,-1
 362 411 l 1,3,-1
 0 411 l 1,0,-1
0 234 m 1,4,-1
 0 276 l 1,5,-1
 362 276 l 1,6,-1
 362 234 l 1,7,-1
 0 234 l 1,4,-1
EndSplineSet
EndChar

StartChar: question
Encoding: 63 63 25
Width: 325
Flags: W
LayerCount: 2
Fore
SplineSet
55 -175 m 1,0,-1
 80 0 l 1,1,-1
 145 0 l 1,2,-1
 120 -175 l 1,3,-1
 55 -175 l 1,0,-1
157 278 m 1,4,5
 151 413 151 413 130 498 c 128,-1,6
 109 583 109 583 64 616 c 1,7,-1
 64 274 l 1,8,9
 87 300 87 300 113 300 c 0,10,11
 136 300 136 300 157 278 c 1,4,5
0 700 m 1,12,13
 41 700 41 700 74 686 c 128,-1,14
 107 672 107 672 130 638.5 c 128,-1,15
 153 605 153 605 170 572.5 c 128,-1,16
 187 540 187 540 197 480 c 128,-1,17
 207 420 207 420 213 377 c 128,-1,18
 219 334 219 334 221.5 255.5 c 128,-1,19
 224 177 224 177 224.5 132.5 c 128,-1,20
 225 88 225 88 225 0 c 1,21,-1
 161 0 l 1,22,23
 161 72 161 72 154 124.5 c 128,-1,24
 147 177 147 177 136 201 c 128,-1,25
 125 225 125 225 112 225 c 0,26,27
 100 225 100 225 89 201 c 128,-1,28
 78 177 78 177 71 124.5 c 128,-1,29
 64 72 64 72 64 0 c 1,30,-1
 0 0 l 1,31,-1
 0 700 l 1,12,13
EndSplineSet
EndChar

StartChar: at
Encoding: 64 64 26
Width: 550
Flags: W
LayerCount: 2
Fore
SplineSet
225 700 m 1,0,1
 225 601 225 601 215.5 520.5 c 128,-1,2
 206 440 206 440 190 390.5 c 128,-1,3
 174 341 174 341 154 314.5 c 128,-1,4
 134 288 134 288 113 288 c 0,5,6
 94 288 94 288 76 307 c 1,7,8
 90 188 90 188 124.5 126 c 128,-1,9
 159 64 159 64 225 64 c 0,10,11
 239 64 239 64 249 68 c 128,-1,12
 259 72 259 72 270.5 88 c 128,-1,13
 282 104 282 104 288.5 133.5 c 128,-1,14
 295 163 295 163 300 217.5 c 128,-1,15
 305 272 305 272 305 350 c 0,16,17
 305 515 305 515 348 607.5 c 128,-1,18
 391 700 391 700 450 700 c 1,19,-1
 450 636 l 1,20,21
 429 636 429 636 411.5 607.5 c 128,-1,22
 394 579 394 579 382 512.5 c 128,-1,23
 370 446 370 446 370 350 c 0,24,25
 370 263 370 263 361.5 198.5 c 128,-1,26
 353 134 353 134 340 97 c 128,-1,27
 327 60 327 60 307 37.5 c 128,-1,28
 287 15 287 15 268 7.5 c 128,-1,29
 249 0 249 0 225 0 c 0,30,31
 184 0 184 0 151 14 c 128,-1,32
 118 28 118 28 95 61.5 c 128,-1,33
 72 95 72 95 55 127.5 c 128,-1,34
 38 160 38 160 28 220 c 128,-1,35
 18 280 18 280 12 323 c 128,-1,36
 6 366 6 366 3.5 444.5 c 128,-1,37
 1 523 1 523 0.5 567.5 c 128,-1,38
 0 612 0 612 0 700 c 1,39,-1
 64 700 l 1,40,41
 64 592 64 592 71 513.5 c 128,-1,42
 78 435 78 435 89 398.5 c 128,-1,43
 100 362 100 362 112 362 c 0,44,45
 125 362 125 362 136 398.5 c 128,-1,46
 147 435 147 435 154 513.5 c 128,-1,47
 161 592 161 592 161 700 c 1,48,-1
 225 700 l 1,0,1
EndSplineSet
EndChar

StartChar: A
Encoding: 65 65 27
Width: 325
Flags: W
LayerCount: 2
Fore
SplineSet
225 700 m 1,0,-1
 225 0 l 1,1,-1
 161 0 l 1,2,-1
 161 350 l 1,3,-1
 0 350 l 1,4,-1
 0 414 l 1,5,-1
 161 414 l 1,6,-1
 161 636 l 1,7,-1
 0 636 l 1,8,-1
 0 700 l 1,9,-1
 225 700 l 1,0,-1
EndSplineSet
EndChar

StartChar: B
Encoding: 66 66 28
Width: 325
Flags: W
LayerCount: 2
Fore
SplineSet
0 0 m 1,0,-1
 0 64 l 1,1,-1
 161 64 l 1,2,-1
 161 461 l 1,3,-1
 0 461 l 1,4,-1
 0 525 l 1,5,-1
 161 525 l 1,6,-1
 161 636 l 1,7,-1
 0 636 l 1,8,-1
 0 700 l 1,9,-1
 225 700 l 1,10,-1
 225 0 l 1,11,-1
 0 0 l 1,0,-1
EndSplineSet
EndChar

StartChar: C
Encoding: 67 67 29
Width: 325
Flags: W
LayerCount: 2
Fore
SplineSet
0 700 m 1,0,-1
 225 700 l 1,1,-1
 225 0 l 1,2,-1
 161 0 l 1,3,-1
 161 624 l 1,4,-1
 64 624 l 1,5,-1
 64 0 l 1,6,-1
 0 0 l 1,7,-1
 0 700 l 1,0,-1
EndSplineSet
EndChar

StartChar: D
Encoding: 68 68 30
Width: 325
Flags: W
LayerCount: 2
Fore
SplineSet
225 326 m 1,0,-1
 225 0 l 1,1,-1
 161 0 l 1,2,-1
 161 262 l 1,3,-1
 64 262 l 1,4,-1
 64 0 l 1,5,-1
 0 0 l 1,6,-1
 0 326 l 1,7,-1
 80 326 l 1,8,-1
 80 636 l 1,9,-1
 0 636 l 1,10,-1
 0 700 l 1,11,-1
 225 700 l 1,12,-1
 225 636 l 1,13,-1
 145 636 l 1,14,-1
 145 326 l 1,15,-1
 225 326 l 1,0,-1
EndSplineSet
EndChar

StartChar: E
Encoding: 69 69 31
Width: 325
Flags: W
LayerCount: 2
Fore
SplineSet
225 0 m 1,0,-1
 161 0 l 1,1,-1
 161 225 l 1,2,-1
 64 225 l 1,3,-1
 64 0 l 1,4,-1
 0 0 l 1,5,-1
 0 700 l 1,6,-1
 64 700 l 1,7,-1
 64 300 l 1,8,-1
 225 300 l 1,9,-1
 225 0 l 1,0,-1
161 700 m 1,10,-1
 225 700 l 1,11,-1
 225 525 l 1,12,-1
 161 525 l 1,13,-1
 161 700 l 1,10,-1
EndSplineSet
EndChar

StartChar: F
Encoding: 70 70 32
Width: 325
Flags: W
LayerCount: 2
Fore
SplineSet
225 700 m 1,0,-1
 225 0 l 1,1,-1
 161 0 l 1,2,-1
 161 636 l 1,3,-1
 0 636 l 1,4,-1
 0 700 l 1,5,-1
 225 700 l 1,0,-1
EndSplineSet
EndChar

StartChar: G
Encoding: 71 71 33
Width: 325
Flags: W
LayerCount: 2
Fore
SplineSet
0 0 m 1,0,-1
 0 700 l 1,1,-1
 64 700 l 1,2,-1
 64 64 l 1,3,-1
 225 64 l 1,4,-1
 225 0 l 1,5,-1
 0 0 l 1,0,-1
225 700 m 1,6,-1
 225 525 l 1,7,-1
 161 525 l 1,8,-1
 161 700 l 1,9,-1
 225 700 l 1,6,-1
EndSplineSet
EndChar

StartChar: H
Encoding: 72 72 34
Width: 325
Flags: W
LayerCount: 2
Fore
SplineSet
225 0 m 1,0,-1
 161 0 l 1,1,-1
 161 338 l 1,2,-1
 64 338 l 1,3,-1
 64 0 l 1,4,-1
 0 0 l 1,5,-1
 0 413 l 1,6,-1
 161 413 l 1,7,-1
 161 636 l 1,8,-1
 0 636 l 1,9,-1
 0 700 l 1,10,-1
 225 700 l 1,11,-1
 225 0 l 1,0,-1
EndSplineSet
EndChar

StartChar: I
Encoding: 73 73 35
Width: 325
Flags: W
LayerCount: 2
Fore
SplineSet
0 636 m 1,0,-1
 0 700 l 1,1,-1
 225 700 l 1,2,-1
 225 636 l 1,3,-1
 0 636 l 1,0,-1
0 0 m 1,4,-1
 0 64 l 1,5,-1
 80 64 l 1,6,-1
 80 350 l 1,7,-1
 145 350 l 1,8,-1
 145 64 l 1,9,-1
 225 64 l 1,10,-1
 225 0 l 1,11,-1
 0 0 l 1,4,-1
EndSplineSet
EndChar

StartChar: J
Encoding: 74 74 36
Width: 325
Flags: W
LayerCount: 2
Fore
SplineSet
0 0 m 1,0,-1
 0 64 l 1,1,-1
 225 64 l 1,2,-1
 225 0 l 1,3,-1
 0 0 l 1,0,-1
225 350 m 1,4,-1
 161 350 l 1,5,-1
 161 636 l 1,6,-1
 64 636 l 1,7,-1
 64 350 l 1,8,-1
 0 350 l 1,9,-1
 0 700 l 1,10,-1
 225 700 l 1,11,-1
 225 350 l 1,4,-1
EndSplineSet
EndChar

StartChar: K
Encoding: 75 75 37
Width: 325
Flags: W
LayerCount: 2
Fore
SplineSet
0 287 m 1,0,-1
 0 700 l 1,1,-1
 64 700 l 1,2,-1
 64 362 l 1,3,-1
 161 362 l 1,4,-1
 161 700 l 1,5,-1
 225 700 l 1,6,-1
 225 0 l 1,7,-1
 0 0 l 1,8,-1
 0 64 l 1,9,-1
 161 64 l 1,10,-1
 161 287 l 1,11,-1
 0 287 l 1,0,-1
EndSplineSet
EndChar

StartChar: L
Encoding: 76 76 38
Width: 325
Flags: W
LayerCount: 2
Fore
SplineSet
0 700 m 1,0,-1
 64 700 l 1,1,-1
 64 278 l 1,2,-1
 161 700 l 1,3,-1
 225 700 l 1,4,-1
 225 0 l 1,5,-1
 161 0 l 1,6,-1
 161 422 l 1,7,-1
 64 0 l 1,8,-1
 0 0 l 1,9,-1
 0 700 l 1,0,-1
EndSplineSet
EndChar

StartChar: M
Encoding: 77 77 39
Width: 325
Flags: W
LayerCount: 2
Fore
SplineSet
0 302 m 1,0,-1
 0 700 l 1,1,-1
 64 700 l 1,2,-1
 64 362 l 1,3,-1
 161 362 l 1,4,-1
 161 700 l 1,5,-1
 225 700 l 1,6,-1
 225 302 l 1,7,-1
 145 302 l 1,8,-1
 145 64 l 1,9,-1
 225 64 l 1,10,-1
 225 0 l 1,11,-1
 0 0 l 1,12,-1
 0 64 l 1,13,-1
 80 64 l 1,14,-1
 80 302 l 1,15,-1
 0 302 l 1,0,-1
EndSplineSet
EndChar

StartChar: N
Encoding: 78 78 40
Width: 325
Flags: W
LayerCount: 2
Fore
SplineSet
225 700 m 1,0,-1
 79 64 l 1,1,-1
 225 64 l 1,2,-1
 225 0 l 1,3,-1
 0 0 l 1,4,-1
 146 636 l 1,5,-1
 0 636 l 1,6,-1
 0 700 l 1,7,-1
 225 700 l 1,0,-1
EndSplineSet
EndChar

StartChar: O
Encoding: 79 79 41
Width: 325
Flags: W
LayerCount: 2
Fore
SplineSet
112 210 m 1,0,-1
 64 0 l 1,1,-1
 0 0 l 1,2,-1
 80 348 l 1,3,-1
 80 352 l 1,4,-1
 0 700 l 1,5,-1
 64 700 l 1,6,-1
 112 490 l 1,7,-1
 113 490 l 1,8,-1
 161 700 l 1,9,-1
 225 700 l 1,10,-1
 145 352 l 1,11,-1
 145 348 l 1,12,-1
 225 0 l 1,13,-1
 161 0 l 1,14,-1
 113 210 l 1,15,-1
 112 210 l 1,0,-1
EndSplineSet
EndChar

StartChar: P
Encoding: 80 80 42
Width: 325
Flags: W
LayerCount: 2
Fore
SplineSet
225 0 m 1,0,-1
 161 0 l 1,1,-1
 161 175 l 1,2,-1
 225 175 l 1,3,-1
 225 0 l 1,0,-1
225 700 m 1,4,-1
 225 525 l 1,5,-1
 161 525 l 1,6,-1
 161 700 l 1,7,-1
 225 700 l 1,4,-1
0 700 m 1,8,-1
 64 700 l 1,9,-1
 64 0 l 1,10,-1
 0 0 l 1,11,-1
 0 700 l 1,8,-1
EndSplineSet
EndChar

StartChar: Q
Encoding: 81 81 43
Width: 325
Flags: W
LayerCount: 2
Fore
SplineSet
225 326 m 1,0,-1
 225 0 l 1,1,-1
 161 0 l 1,2,-1
 161 262 l 1,3,-1
 64 262 l 1,4,-1
 64 0 l 1,5,-1
 0 0 l 1,6,-1
 0 326 l 1,7,-1
 80 326 l 1,8,-1
 80 525 l 1,9,-1
 0 525 l 1,10,-1
 0 589 l 1,11,-1
 80 589 l 1,12,-1
 80 700 l 1,13,-1
 145 700 l 1,14,-1
 145 589 l 1,15,-1
 225 589 l 1,16,-1
 225 525 l 1,17,-1
 145 525 l 1,18,-1
 145 326 l 1,19,-1
 225 326 l 1,0,-1
EndSplineSet
EndChar

StartChar: R
Encoding: 82 82 44
Width: 325
Flags: W
LayerCount: 2
Fore
SplineSet
0 700 m 1,0,-1
 225 700 l 1,1,-1
 225 636 l 1,2,-1
 0 636 l 1,3,-1
 0 700 l 1,0,-1
0 0 m 1,4,-1
 0 412 l 1,5,-1
 64 412 l 1,6,-1
 64 75 l 1,7,-1
 161 75 l 1,8,-1
 161 412 l 1,9,-1
 225 412 l 1,10,-1
 225 0 l 1,11,-1
 0 0 l 1,4,-1
EndSplineSet
EndChar

StartChar: S
Encoding: 83 83 45
Width: 325
Flags: W
LayerCount: 2
Fore
SplineSet
225 400 m 1,0,-1
 64 400 l 1,1,-1
 64 0 l 1,2,-1
 0 0 l 1,3,-1
 0 700 l 1,4,-1
 64 700 l 1,5,-1
 64 475 l 1,6,-1
 161 475 l 1,7,-1
 161 700 l 1,8,-1
 225 700 l 1,9,-1
 225 400 l 1,0,-1
EndSplineSet
EndChar

StartChar: T
Encoding: 84 84 46
Width: 325
Flags: W
LayerCount: 2
Fore
SplineSet
225 338 m 1,0,-1
 225 0 l 1,1,-1
 161 0 l 1,2,-1
 161 262 l 1,3,-1
 64 262 l 1,4,-1
 64 0 l 1,5,-1
 0 0 l 1,6,-1
 0 338 l 1,7,-1
 225 338 l 1,0,-1
64 700 m 1,8,-1
 64 525 l 1,9,-1
 0 525 l 1,10,-1
 0 700 l 1,11,-1
 64 700 l 1,8,-1
161 700 m 1,12,-1
 225 700 l 1,13,-1
 225 525 l 1,14,-1
 161 525 l 1,15,-1
 161 700 l 1,12,-1
EndSplineSet
EndChar

StartChar: U
Encoding: 85 85 47
Width: 325
Flags: W
LayerCount: 2
Fore
SplineSet
64 0 m 1,0,-1
 0 0 l 1,1,-1
 0 175 l 1,2,-1
 64 175 l 1,3,-1
 64 0 l 1,0,-1
225 700 m 1,4,-1
 225 0 l 1,5,-1
 161 0 l 1,6,-1
 161 636 l 1,7,-1
 0 636 l 1,8,-1
 0 700 l 1,9,-1
 225 700 l 1,4,-1
EndSplineSet
EndChar

StartChar: V
Encoding: 86 86 48
Width: 325
Flags: W
LayerCount: 2
Fore
SplineSet
0 0 m 1,0,-1
 0 64 l 1,1,-1
 161 64 l 1,2,-1
 161 636 l 1,3,-1
 0 636 l 1,4,-1
 0 700 l 1,5,-1
 225 700 l 1,6,-1
 225 0 l 1,7,-1
 0 0 l 1,0,-1
EndSplineSet
EndChar

StartChar: W
Encoding: 87 87 49
Width: 325
Flags: W
LayerCount: 2
Fore
SplineSet
64 0 m 1024,0,-1
225 0 m 1,1,-1
 161 0 l 1,2,-1
 161 224 l 1,3,-1
 64 224 l 1,4,-1
 64 0 l 1,5,-1
 0 0 l 1,6,-1
 0 300 l 1,7,-1
 151 300 l 1,8,-1
 0 700 l 1,9,-1
 64 700 l 1,10,-1
 161 443 l 1,11,-1
 161 700 l 1,12,-1
 225 700 l 1,13,-1
 225 0 l 1,1,-1
EndSplineSet
EndChar

StartChar: X
Encoding: 88 88 50
Width: 325
Flags: W
LayerCount: 2
Fore
SplineSet
161 700 m 1,0,-1
 225 700 l 1,1,-1
 225 0 l 1,2,-1
 161 0 l 1,3,-1
 161 225 l 1,4,-1
 64 225 l 1,5,-1
 64 0 l 1,6,-1
 0 0 l 1,7,-1
 0 700 l 1,8,-1
 64 700 l 1,9,-1
 64 300 l 1,10,-1
 161 300 l 1,11,-1
 161 700 l 1,0,-1
EndSplineSet
EndChar

StartChar: Y
Encoding: 89 89 51
Width: 325
Flags: W
LayerCount: 2
Fore
SplineSet
0 0 m 1,0,-1
 0 700 l 1,1,-1
 225 700 l 1,2,-1
 225 350 l 1,3,-1
 161 350 l 1,4,-1
 161 636 l 1,5,-1
 64 636 l 1,6,-1
 64 64 l 1,7,-1
 161 64 l 1,8,-1
 161 0 l 1,9,-1
 0 0 l 1,0,-1
EndSplineSet
EndChar

StartChar: Z
Encoding: 90 90 52
Width: 325
Flags: W
LayerCount: 2
Fore
SplineSet
0 700 m 1,0,-1
 225 700 l 1,1,-1
 225 636 l 1,2,-1
 64 636 l 1,3,-1
 64 413 l 1,4,-1
 225 413 l 1,5,-1
 225 0 l 1,6,-1
 161 0 l 1,7,-1
 161 338 l 1,8,-1
 64 338 l 1,9,-1
 64 0 l 1,10,-1
 0 0 l 1,11,-1
 0 700 l 1,0,-1
EndSplineSet
EndChar

StartChar: backslash
Encoding: 92 92 53
Width: 493
Flags: W
LayerCount: 2
Fore
SplineSet
393 -100 m 1,0,-1
 353 -100 l 1,1,-1
 0 800 l 1,2,-1
 40 800 l 1,3,-1
 393 -100 l 1,0,-1
EndSplineSet
EndChar

StartChar: a
Encoding: 97 97 54
Width: 325
Flags: W
LayerCount: 2
Fore
SplineSet
146 414 m 1,0,1
 132 522 132 522 97.5 579 c 128,-1,2
 63 636 63 636 0 636 c 1,3,-1
 0 700 l 1,4,5
 41 700 41 700 74 686 c 128,-1,6
 107 672 107 672 130 638.5 c 128,-1,7
 153 605 153 605 170 572.5 c 128,-1,8
 187 540 187 540 197 480 c 128,-1,9
 207 420 207 420 213 377 c 128,-1,10
 219 334 219 334 221.5 255.5 c 128,-1,11
 224 177 224 177 224.5 132.5 c 128,-1,12
 225 88 225 88 225 0 c 1,13,-1
 161 0 l 1,14,15
 161 249 161 249 153 350 c 1,16,-1
 0 350 l 1,17,-1
 0 414 l 1,18,-1
 146 414 l 1,0,1
EndSplineSet
EndChar

StartChar: b
Encoding: 98 98 55
Width: 325
Flags: W
LayerCount: 2
Fore
SplineSet
0 0 m 1,0,-1
 0 64 l 1,1,2
 66 64 66 64 113.5 136.5 c 128,-1,3
 161 209 161 209 161 350 c 0,4,5
 161 408 161 408 151 461 c 1,6,-1
 0 461 l 1,7,-1
 0 525 l 1,8,-1
 133 525 l 1,9,10
 111 580 111 580 75.5 608 c 128,-1,11
 40 636 40 636 0 636 c 1,12,-1
 0 700 l 1,13,14
 91 700 91 700 158 607.5 c 128,-1,15
 225 515 225 515 225 350 c 128,-1,16
 225 185 225 185 158 92.5 c 128,-1,17
 91 0 91 0 0 0 c 1,0,-1
EndSplineSet
EndChar

StartChar: c
Encoding: 99 99 56
Width: 325
Flags: W
LayerCount: 2
Fore
SplineSet
161 287 m 2,0,1
 161 395 161 395 154 473.5 c 128,-1,2
 147 552 147 552 136 588 c 128,-1,3
 125 624 125 624 112 624 c 0,4,5
 100 624 100 624 89 588 c 128,-1,6
 78 552 78 552 71 473 c 128,-1,7
 64 394 64 394 64 287 c 2,8,-1
 64 0 l 1,9,-1
 0 0 l 1,10,-1
 0 287 l 2,11,12
 0 386 0 386 9.5 466.5 c 128,-1,13
 19 547 19 547 35 597 c 128,-1,14
 51 647 51 647 71 673.5 c 128,-1,15
 91 700 91 700 112 700 c 0,16,17
 158 700 158 700 191.5 591 c 128,-1,18
 225 482 225 482 225 287 c 2,19,-1
 225 0 l 1,20,-1
 161 0 l 1,21,-1
 161 287 l 2,0,1
EndSplineSet
EndChar

StartChar: d
Encoding: 100 100 57
Width: 325
Flags: W
LayerCount: 2
Fore
SplineSet
161 0 m 1,0,1
 161 84 161 84 154 145 c 128,-1,2
 147 206 147 206 136 234 c 128,-1,3
 125 262 125 262 112 262 c 0,4,5
 100 262 100 262 89 234 c 128,-1,6
 78 206 78 206 71 145 c 128,-1,7
 64 84 64 84 64 0 c 1,8,-1
 0 0 l 1,9,10
 0 129 0 129 22.5 212.5 c 128,-1,11
 45 296 45 296 80 325 c 1,12,-1
 80 636 l 1,13,-1
 0 636 l 1,14,-1
 0 700 l 1,15,-1
 225 700 l 1,16,-1
 225 636 l 1,17,-1
 145 636 l 1,18,-1
 145 325 l 1,19,20
 180 296 180 296 202.5 212.5 c 128,-1,21
 225 129 225 129 225 0 c 1,22,-1
 161 0 l 1,0,1
EndSplineSet
EndChar

StartChar: e
Encoding: 101 101 58
Width: 325
Flags: W
LayerCount: 2
Fore
SplineSet
225 0 m 1,0,-1
 161 0 l 1,1,2
 161 72 161 72 153.5 124.5 c 128,-1,3
 146 177 146 177 135 201 c 128,-1,4
 124 225 124 225 112 225 c 128,-1,5
 100 225 100 225 89 201 c 128,-1,6
 78 177 78 177 71 124.5 c 128,-1,7
 64 72 64 72 64 0 c 1,8,-1
 0 0 l 1,9,-1
 0 700 l 1,10,-1
 64 700 l 1,11,-1
 64 274 l 1,12,13
 87 300 87 300 112 300 c 0,14,15
 158 300 158 300 191.5 220.5 c 128,-1,16
 225 141 225 141 225 0 c 1,0,-1
225 700 m 1,17,-1
 200 525 l 1,18,-1
 136 525 l 1,19,-1
 161 700 l 1,20,-1
 225 700 l 1,17,-1
EndSplineSet
EndChar

StartChar: f
Encoding: 102 102 59
Width: 325
Flags: W
LayerCount: 2
Fore
SplineSet
0 636 m 1,0,-1
 0 700 l 1,1,2
 41 700 41 700 74 686 c 128,-1,3
 107 672 107 672 130 638.5 c 128,-1,4
 153 605 153 605 170 572.5 c 128,-1,5
 187 540 187 540 197 480 c 128,-1,6
 207 420 207 420 213 377 c 128,-1,7
 219 334 219 334 221.5 255.5 c 128,-1,8
 224 177 224 177 224.5 132.5 c 128,-1,9
 225 88 225 88 225 0 c 1,10,-1
 161 0 l 1,11,12
 161 115 161 115 160 171.5 c 128,-1,13
 159 228 159 228 155 318 c 128,-1,14
 151 408 151 408 141 452 c 128,-1,15
 131 496 131 496 113.5 546 c 128,-1,16
 96 596 96 596 67.5 616 c 128,-1,17
 39 636 39 636 0 636 c 1,0,-1
EndSplineSet
EndChar

StartChar: g
Encoding: 103 103 60
Width: 325
Flags: W
LayerCount: 2
Fore
SplineSet
225 64 m 1,0,-1
 225 0 l 1,1,2
 184 0 184 0 151 14 c 128,-1,3
 118 28 118 28 95 61.5 c 128,-1,4
 72 95 72 95 55 127.5 c 128,-1,5
 38 160 38 160 28 220 c 128,-1,6
 18 280 18 280 12 323 c 128,-1,7
 6 366 6 366 3.5 444.5 c 128,-1,8
 1 523 1 523 0.5 567.5 c 128,-1,9
 0 612 0 612 0 700 c 1,10,-1
 64 700 l 1,11,12
 64 585 64 585 65 528.5 c 128,-1,13
 66 472 66 472 70 382 c 128,-1,14
 74 292 74 292 84 248 c 128,-1,15
 94 204 94 204 111.5 154 c 128,-1,16
 129 104 129 104 157.5 84 c 128,-1,17
 186 64 186 64 225 64 c 1,0,-1
225 700 m 1,18,-1
 200 525 l 1,19,-1
 136 525 l 1,20,-1
 161 700 l 1,21,-1
 225 700 l 1,18,-1
EndSplineSet
EndChar

StartChar: h
Encoding: 104 104 61
Width: 325
Flags: W
LayerCount: 2
Fore
SplineSet
0 636 m 1,0,-1
 0 700 l 1,1,2
 41 700 41 700 74 686 c 128,-1,3
 107 672 107 672 130 638.5 c 128,-1,4
 153 605 153 605 170 572.5 c 128,-1,5
 187 540 187 540 197 480 c 128,-1,6
 207 420 207 420 213 377 c 128,-1,7
 219 334 219 334 221.5 255.5 c 128,-1,8
 224 177 224 177 224.5 132.5 c 128,-1,9
 225 88 225 88 225 0 c 1,10,-1
 161 0 l 1,11,12
 161 107 161 107 153.5 186 c 128,-1,13
 146 265 146 265 135 301.5 c 128,-1,14
 124 338 124 338 112 338 c 128,-1,15
 100 338 100 338 89 301.5 c 128,-1,16
 78 265 78 265 71 186.5 c 128,-1,17
 64 108 64 108 64 0 c 1,18,-1
 0 0 l 1,19,20
 0 131 0 131 17 227.5 c 128,-1,21
 34 324 34 324 59 368.5 c 128,-1,22
 84 413 84 413 113 413 c 0,23,24
 131 413 131 413 149 393 c 1,25,26
 135 512 135 512 100.5 574 c 128,-1,27
 66 636 66 636 0 636 c 1,0,-1
EndSplineSet
EndChar

StartChar: i
Encoding: 105 105 62
Width: 325
Flags: W
LayerCount: 2
Fore
SplineSet
0 636 m 1,0,-1
 0 700 l 1,1,-1
 225 700 l 1,2,-1
 225 636 l 1,3,-1
 0 636 l 1,0,-1
0 0 m 1,4,-1
 0 64 l 1,5,-1
 80 64 l 1,6,-1
 80 350 l 1,7,-1
 145 350 l 1,8,-1
 145 64 l 1,9,-1
 225 64 l 1,10,-1
 225 0 l 1,11,-1
 0 0 l 1,4,-1
EndSplineSet
EndChar

StartChar: j
Encoding: 106 106 63
Width: 325
Flags: W
LayerCount: 2
Fore
SplineSet
0 350 m 1,0,1
 0 516 0 516 33 608 c 128,-1,2
 66 700 66 700 112 700 c 128,-1,3
 158 700 158 700 191.5 608 c 128,-1,4
 225 516 225 516 225 350 c 1,5,-1
 161 350 l 1,6,7
 161 438 161 438 154 502 c 128,-1,8
 147 566 147 566 136 595.5 c 128,-1,9
 125 625 125 625 112 625 c 0,10,11
 100 625 100 625 89 595.5 c 128,-1,12
 78 566 78 566 71 502 c 128,-1,13
 64 438 64 438 64 350 c 1,14,-1
 0 350 l 1,0,1
0 0 m 1,15,-1
 0 64 l 1,16,-1
 225 64 l 1,17,-1
 225 0 l 1,18,-1
 0 0 l 1,15,-1
EndSplineSet
EndChar

StartChar: k
Encoding: 107 107 64
Width: 325
Flags: W
LayerCount: 2
Fore
SplineSet
0 700 m 1,0,-1
 64 700 l 1,1,2
 64 592 64 592 71 513.5 c 128,-1,3
 78 435 78 435 89 398.5 c 128,-1,4
 100 362 100 362 112 362 c 0,5,6
 125 362 125 362 136 398.5 c 128,-1,7
 147 435 147 435 154 513.5 c 128,-1,8
 161 592 161 592 161 700 c 1,9,-1
 225 700 l 1,10,11
 225 612 225 612 224.5 567.5 c 128,-1,12
 224 523 224 523 221.5 444.5 c 128,-1,13
 219 366 219 366 213 323 c 128,-1,14
 207 280 207 280 197 220 c 128,-1,15
 187 160 187 160 170 127.5 c 128,-1,16
 153 95 153 95 130 61.5 c 128,-1,17
 107 28 107 28 74 14 c 128,-1,18
 41 0 41 0 0 0 c 1,19,-1
 0 64 l 1,20,21
 66 64 66 64 100.5 126 c 128,-1,22
 135 188 135 188 149 307 c 1,23,24
 131 287 131 287 113 287 c 0,25,26
 84 287 84 287 59 331.5 c 128,-1,27
 34 376 34 376 17 472.5 c 128,-1,28
 0 569 0 569 0 700 c 1,0,-1
EndSplineSet
EndChar

StartChar: l
Encoding: 108 108 65
Width: 325
Flags: W
LayerCount: 2
Fore
SplineSet
0 700 m 1,0,-1
 64 700 l 1,1,-1
 64 278 l 1,2,-1
 161 700 l 1,3,-1
 225 700 l 1,4,-1
 225 0 l 1,5,-1
 161 0 l 1,6,-1
 161 422 l 1,7,-1
 64 0 l 1,8,-1
 0 0 l 1,9,-1
 0 700 l 1,0,-1
EndSplineSet
EndChar

StartChar: m
Encoding: 109 109 66
Width: 325
Flags: W
LayerCount: 2
Fore
SplineSet
0 700 m 1,0,-1
 64 700 l 1,1,2
 64 592 64 592 71 513.5 c 128,-1,3
 78 435 78 435 89 398.5 c 128,-1,4
 100 362 100 362 112 362 c 0,5,6
 125 362 125 362 136 398.5 c 128,-1,7
 147 435 147 435 154 513.5 c 128,-1,8
 161 592 161 592 161 700 c 1,9,-1
 225 700 l 1,10,11
 225 542 225 542 202.5 440 c 128,-1,12
 180 338 180 338 145 304 c 1,13,-1
 145 64 l 1,14,-1
 225 64 l 1,15,-1
 225 0 l 1,16,-1
 0 0 l 1,17,-1
 0 64 l 1,18,-1
 80 64 l 1,19,-1
 80 303 l 1,20,21
 45 337 45 337 22.5 439.5 c 128,-1,22
 0 542 0 542 0 700 c 1,0,-1
EndSplineSet
EndChar

StartChar: n
Encoding: 110 110 67
Width: 325
Flags: W
LayerCount: 2
Fore
SplineSet
225 700 m 1,0,-1
 79 64 l 1,1,-1
 225 64 l 1,2,-1
 225 0 l 1,3,-1
 0 0 l 1,4,-1
 146 636 l 1,5,-1
 0 636 l 1,6,-1
 0 700 l 1,7,-1
 225 700 l 1,0,-1
EndSplineSet
EndChar

StartChar: o
Encoding: 111 111 68
Width: 325
Flags: W
LayerCount: 2
Fore
SplineSet
112 210 m 1,0,-1
 64 0 l 1,1,-1
 0 0 l 1,2,-1
 80 348 l 1,3,-1
 80 352 l 1,4,-1
 0 700 l 1,5,-1
 64 700 l 1,6,-1
 112 490 l 1,7,-1
 113 490 l 1,8,-1
 161 700 l 1,9,-1
 225 700 l 1,10,-1
 145 352 l 1,11,-1
 145 348 l 1,12,-1
 225 0 l 1,13,-1
 161 0 l 1,14,-1
 113 210 l 1,15,-1
 112 210 l 1,0,-1
EndSplineSet
EndChar

StartChar: p
Encoding: 112 112 69
Width: 325
Flags: W
LayerCount: 2
Fore
SplineSet
225 0 m 1,0,-1
 161 0 l 1,1,-1
 136 175 l 1,2,-1
 200 175 l 1,3,-1
 225 0 l 1,0,-1
225 700 m 1,4,-1
 200 525 l 1,5,-1
 136 525 l 1,6,-1
 161 700 l 1,7,-1
 225 700 l 1,4,-1
0 700 m 1,8,-1
 64 700 l 1,9,-1
 64 0 l 1,10,-1
 0 0 l 1,11,-1
 0 700 l 1,8,-1
EndSplineSet
EndChar

StartChar: q
Encoding: 113 113 70
Width: 325
Flags: W
LayerCount: 2
Fore
SplineSet
80 525 m 1,0,-1
 0 525 l 1,1,-1
 0 589 l 1,2,-1
 80 589 l 1,3,-1
 80 700 l 1,4,-1
 145 700 l 1,5,-1
 145 589 l 1,6,-1
 225 589 l 1,7,-1
 225 525 l 1,8,-1
 145 525 l 1,9,-1
 145 325 l 1,10,11
 180 296 180 296 202.5 212.5 c 128,-1,12
 225 129 225 129 225 0 c 1,13,-1
 161 0 l 1,14,15
 161 83 161 83 153.5 144.5 c 128,-1,16
 146 206 146 206 135 234 c 128,-1,17
 124 262 124 262 112 262 c 128,-1,18
 100 262 100 262 89 234 c 128,-1,19
 78 206 78 206 71 145 c 128,-1,20
 64 84 64 84 64 0 c 1,21,-1
 0 0 l 1,22,23
 0 129 0 129 22.5 212.5 c 128,-1,24
 45 296 45 296 80 325 c 1,25,-1
 80 525 l 1,0,-1
EndSplineSet
EndChar

StartChar: r
Encoding: 114 114 71
Width: 325
Flags: W
LayerCount: 2
Fore
SplineSet
0 700 m 1,0,-1
 225 700 l 1,1,-1
 225 636 l 1,2,-1
 0 636 l 1,3,-1
 0 700 l 1,0,-1
0 412 m 1,4,-1
 64 412 l 1,5,6
 64 304 64 304 71 225.5 c 128,-1,7
 78 147 78 147 89 110.5 c 128,-1,8
 100 74 100 74 112 74 c 0,9,10
 125 74 125 74 136 110.5 c 128,-1,11
 147 147 147 147 154 225.5 c 128,-1,12
 161 304 161 304 161 412 c 1,13,-1
 225 412 l 1,14,15
 225 217 225 217 191.5 108.5 c 128,-1,16
 158 0 158 0 112 0 c 0,17,18
 91 0 91 0 71 26.5 c 128,-1,19
 51 53 51 53 35 102.5 c 128,-1,20
 19 152 19 152 9.5 232.5 c 128,-1,21
 0 313 0 313 0 412 c 1,4,-1
EndSplineSet
EndChar

StartChar: s
Encoding: 115 115 72
Width: 325
Flags: W
LayerCount: 2
Fore
SplineSet
225 700 m 1,0,1
 225 558 225 558 191.5 479 c 128,-1,2
 158 400 158 400 112 400 c 0,3,4
 87 400 87 400 64 426 c 1,5,-1
 64 0 l 1,6,-1
 0 0 l 1,7,-1
 0 700 l 1,8,-1
 64 700 l 1,9,10
 64 628 64 628 71 575.5 c 128,-1,11
 78 523 78 523 89 499 c 128,-1,12
 100 475 100 475 112 475 c 0,13,14
 125 475 125 475 136 499 c 128,-1,15
 147 523 147 523 154 575.5 c 128,-1,16
 161 628 161 628 161 700 c 1,17,-1
 225 700 l 1,0,1
EndSplineSet
EndChar

StartChar: t
Encoding: 116 116 73
Width: 325
Flags: W
LayerCount: 2
Fore
SplineSet
225 700 m 1,0,-1
 200 525 l 1,1,-1
 136 525 l 1,2,-1
 161 700 l 1,3,-1
 225 700 l 1,0,-1
0 700 m 1,4,-1
 64 700 l 1,5,-1
 89 525 l 1,6,-1
 25 525 l 1,7,-1
 0 700 l 1,4,-1
225 0 m 1,8,-1
 161 0 l 1,9,10
 161 84 161 84 154 145 c 128,-1,11
 147 206 147 206 136 234 c 128,-1,12
 125 262 125 262 112 262 c 0,13,14
 100 262 100 262 89 234 c 128,-1,15
 78 206 78 206 71 145 c 128,-1,16
 64 84 64 84 64 0 c 1,17,-1
 0 0 l 1,18,19
 0 159 0 159 33.5 248.5 c 128,-1,20
 67 338 67 338 112 338 c 0,21,22
 158 338 158 338 191.5 249 c 128,-1,23
 225 160 225 160 225 0 c 1,8,-1
EndSplineSet
EndChar

StartChar: u
Encoding: 117 117 74
Width: 325
Flags: W
LayerCount: 2
Fore
SplineSet
0 636 m 1,0,-1
 0 700 l 1,1,2
 41 700 41 700 74 686 c 128,-1,3
 107 672 107 672 130 638.5 c 128,-1,4
 153 605 153 605 170 572.5 c 128,-1,5
 187 540 187 540 197 480 c 128,-1,6
 207 420 207 420 213 377 c 128,-1,7
 219 334 219 334 221.5 255.5 c 128,-1,8
 224 177 224 177 224.5 132.5 c 128,-1,9
 225 88 225 88 225 0 c 1,10,-1
 161 0 l 1,11,12
 161 115 161 115 160 171.5 c 128,-1,13
 159 228 159 228 155 318 c 128,-1,14
 151 408 151 408 141 452 c 128,-1,15
 131 496 131 496 113.5 546 c 128,-1,16
 96 596 96 596 67.5 616 c 128,-1,17
 39 636 39 636 0 636 c 1,0,-1
0 0 m 1,18,-1
 25 175 l 1,19,-1
 89 175 l 1,20,-1
 64 0 l 1,21,-1
 0 0 l 1,18,-1
EndSplineSet
EndChar

StartChar: v
Encoding: 118 118 75
Width: 325
Flags: W
LayerCount: 2
Fore
SplineSet
0 0 m 1,0,-1
 0 64 l 1,1,2
 66 64 66 64 113.5 136.5 c 128,-1,3
 161 209 161 209 161 350 c 128,-1,4
 161 491 161 491 113.5 563.5 c 128,-1,5
 66 636 66 636 0 636 c 1,6,-1
 0 700 l 1,7,8
 91 700 91 700 158 607.5 c 128,-1,9
 225 515 225 515 225 350 c 128,-1,10
 225 185 225 185 158 92.5 c 128,-1,11
 91 0 91 0 0 0 c 1,0,-1
EndSplineSet
EndChar

StartChar: w
Encoding: 119 119 76
Width: 325
Flags: W
LayerCount: 2
Fore
SplineSet
161 274 m 1,0,-1
 0 700 l 1,1,-1
 64 700 l 1,2,-1
 161 443 l 1,3,-1
 161 700 l 1,4,-1
 225 700 l 1,5,-1
 225 0 l 1,6,-1
 161 0 l 1,7,8
 161 72 161 72 153.5 124.5 c 128,-1,9
 146 177 146 177 135 201 c 128,-1,10
 124 225 124 225 112 225 c 128,-1,11
 100 225 100 225 89 201 c 128,-1,12
 78 177 78 177 71 124.5 c 128,-1,13
 64 72 64 72 64 0 c 1,14,-1
 0 0 l 1,15,16
 0 141 0 141 33.5 220.5 c 128,-1,17
 67 300 67 300 113 300 c 0,18,19
 138 300 138 300 161 274 c 1,0,-1
EndSplineSet
EndChar

StartChar: x
Encoding: 120 120 77
Width: 325
Flags: W
LayerCount: 2
Fore
SplineSet
64 274 m 1,0,1
 86 300 86 300 113 300 c 0,2,3
 138 300 138 300 161 274 c 1,4,-1
 161 700 l 1,5,-1
 225 700 l 1,6,-1
 225 0 l 1,7,-1
 161 0 l 1,8,9
 161 72 161 72 154 124.5 c 128,-1,10
 147 177 147 177 136 201 c 128,-1,11
 125 225 125 225 113 225 c 128,-1,12
 101 225 101 225 90 201 c 128,-1,13
 79 177 79 177 71.5 124.5 c 128,-1,14
 64 72 64 72 64 0 c 1,15,-1
 0 0 l 1,16,-1
 0 700 l 1,17,-1
 64 700 l 1,18,-1
 64 274 l 1,0,1
EndSplineSet
EndChar

StartChar: y
Encoding: 121 121 78
Width: 325
Flags: W
LayerCount: 2
Fore
SplineSet
0 350 m 0,0,1
 0 509 0 509 33.5 598.5 c 128,-1,2
 67 688 67 688 112 688 c 0,3,4
 158 688 158 688 191.5 599 c 128,-1,5
 225 510 225 510 225 350 c 1,6,-1
 161 350 l 1,7,8
 161 434 161 434 154 495 c 128,-1,9
 147 556 147 556 136 584 c 128,-1,10
 125 612 125 612 112 612 c 0,11,12
 100 612 100 612 89 584 c 128,-1,13
 78 556 78 556 71 495 c 128,-1,14
 64 434 64 434 64 350 c 0,15,16
 64 202 64 202 81 133 c 128,-1,17
 98 64 98 64 150 64 c 1,18,-1
 150 0 l 1,19,20
 98 0 98 0 66.5 29.5 c 128,-1,21
 35 59 35 59 17.5 137 c 128,-1,22
 0 215 0 215 0 350 c 0,0,1
EndSplineSet
EndChar

StartChar: z
Encoding: 122 122 79
Width: 325
Flags: W
LayerCount: 2
Fore
SplineSet
0 700 m 1,0,-1
 225 700 l 1,1,-1
 225 636 l 1,2,3
 159 636 159 636 124.5 574 c 128,-1,4
 90 512 90 512 76 393 c 1,5,6
 94 413 94 413 112 413 c 0,7,8
 141 413 141 413 166 368.5 c 128,-1,9
 191 324 191 324 208 227.5 c 128,-1,10
 225 131 225 131 225 0 c 1,11,-1
 161 0 l 1,12,13
 161 108 161 108 154 186.5 c 128,-1,14
 147 265 147 265 136 301.5 c 128,-1,15
 125 338 125 338 113 338 c 0,16,17
 100 338 100 338 89 301.5 c 128,-1,18
 78 265 78 265 71 186.5 c 128,-1,19
 64 108 64 108 64 0 c 1,20,-1
 0 0 l 1,21,22
 0 104 0 104 0.5 158 c 128,-1,23
 1 212 1 212 6 299.5 c 128,-1,24
 11 387 11 387 20 439.5 c 128,-1,25
 29 492 29 492 47 547 c 128,-1,26
 65 602 65 602 92 636 c 1,27,-1
 0 636 l 1,28,-1
 0 700 l 1,0,-1
EndSplineSet
EndChar

StartChar: asciitilde
Encoding: 126 126 80
Width: 450
Flags: W
LayerCount: 2
Fore
SplineSet
318 406 m 2,0,-1
 350 406 l 1,1,-1
 350 294 l 1,2,-1
 318 294 l 1,3,-1
 318 374 l 1,4,5
 250 374 250 374 194 344 c 1,6,7
 231 278 231 278 231 207 c 2,8,-1
 231 175 l 1,9,-1
 119 175 l 1,10,-1
 119 207 l 1,11,-1
 199 207 l 1,12,13
 199 275 199 275 169 331 c 1,14,15
 103 294 103 294 32 294 c 2,16,-1
 0 294 l 1,17,-1
 0 406 l 1,18,-1
 32 406 l 1,19,-1
 32 326 l 1,20,21
 100 326 100 326 156 356 c 1,22,23
 119 422 119 422 119 493 c 2,24,-1
 119 525 l 1,25,-1
 231 525 l 1,26,-1
 231 493 l 1,27,-1
 151 493 l 1,28,29
 151 425 151 425 181 369 c 1,30,31
 247 406 247 406 318 406 c 2,0,-1
EndSplineSet
EndChar

StartChar: exclamdown
Encoding: 161 161 82
Width: 164
Flags: W
LayerCount: 2
Fore
SplineSet
0 700 m 1,0,-1
 64 700 l 1,1,-1
 64 636 l 1,2,-1
 0 636 l 1,3,-1
 0 700 l 1,0,-1
64 -128 m 1,4,-1
 0 -128 l 1,5,-1
 0 572 l 1,6,-1
 64 572 l 1,7,-1
 64 -128 l 1,4,-1
EndSplineSet
EndChar

StartChar: currency
Encoding: 164 164 83
Width: 550
Flags: W
LayerCount: 2
Fore
SplineSet
225 0 m 2,0,-1
 161 0 l 1,1,2
 161 108 161 108 154 186.5 c 128,-1,3
 147 265 147 265 136 301.5 c 128,-1,4
 125 338 125 338 112 338 c 0,5,6
 100 338 100 338 89 301.5 c 128,-1,7
 78 265 78 265 71 186.5 c 128,-1,8
 64 108 64 108 64 0 c 1,9,-1
 0 0 l 1,10,11
 0 104 0 104 0.5 158 c 128,-1,12
 1 212 1 212 6 299.5 c 128,-1,13
 11 387 11 387 20 439.5 c 128,-1,14
 29 492 29 492 47 547 c 128,-1,15
 65 602 65 602 92 636 c 1,16,-1
 0 636 l 1,17,-1
 0 700 l 1,18,-1
 225 700 l 2,19,20
 273 700 273 700 308 648 c 128,-1,21
 343 596 343 596 359 518.5 c 128,-1,22
 375 441 375 441 375 350 c 0,23,24
 375 266 375 266 360 191 c 1,25,26
 404 64 404 64 450 64 c 1,27,-1
 450 0 l 1,28,29
 393 0 393 0 338 111 c 1,30,31
 296 0 296 0 225 0 c 2,0,-1
76 393 m 1,32,33
 94 413 94 413 112 413 c 0,34,35
 154 413 154 413 186 321.5 c 128,-1,36
 218 230 218 230 224 64 c 1,37,-1
 225 64 l 2,38,39
 260 64 260 64 280 150 c 128,-1,40
 300 236 300 236 300 353 c 0,41,42
 300 404 300 404 295 461 c 1,43,-1
 225 461 l 1,44,-1
 225 525 l 1,45,-1
 286 525 l 1,46,47
 264 636 264 636 225 636 c 0,48,49
 159 636 159 636 124.5 574 c 128,-1,50
 90 512 90 512 76 393 c 1,32,33
EndSplineSet
EndChar

StartChar: yen
Encoding: 165 165 84
Width: 700
Flags: W
LayerCount: 2
Fore
SplineSet
375 0 m 0,0,1
 446 0 446 0 488 111 c 1,2,3
 543 0 543 0 600 0 c 1,4,-1
 600 64 l 1,5,6
 554 64 554 64 510 191 c 1,7,8
 525 266 525 266 525 350 c 0,9,10
 525 441 525 441 509 518.5 c 128,-1,11
 493 596 493 596 458 648 c 128,-1,12
 423 700 423 700 375 700 c 1,13,-1
 375 636 l 1,14,15
 410 636 410 636 430 551 c 128,-1,16
 450 466 450 466 450 350 c 128,-1,17
 450 234 450 234 430 149 c 128,-1,18
 410 64 410 64 375 64 c 0,19,20
 345 64 345 64 320 153.5 c 128,-1,21
 295 243 295 243 295 350 c 1,22,-1
 230 350 l 1,23,24
 230 243 230 243 205 153.5 c 128,-1,25
 180 64 180 64 150 64 c 0,26,27
 115 64 115 64 95 149 c 128,-1,28
 75 234 75 234 75 350 c 128,-1,29
 75 466 75 466 95 551 c 128,-1,30
 115 636 115 636 150 636 c 1,31,-1
 150 700 l 1,32,33
 102 700 102 700 67 648 c 128,-1,34
 32 596 32 596 16 518.5 c 128,-1,35
 0 441 0 441 0 350 c 128,-1,36
 0 259 0 259 16 181.5 c 128,-1,37
 32 104 32 104 67 52 c 128,-1,38
 102 0 102 0 150 0 c 0,39,40
 181 0 181 0 210.5 39.5 c 128,-1,41
 240 79 240 79 262 144 c 1,42,43
 283 79 283 79 313.5 39.5 c 128,-1,44
 344 0 344 0 375 0 c 0,0,1
EndSplineSet
EndChar

StartChar: brokenbar
Encoding: 166 166 85
Width: 164
Flags: W
LayerCount: 2
Fore
SplineSet
0 382 m 1,0,-1
 0 700 l 1,1,-1
 64 700 l 1,2,-1
 64 382 l 1,3,-1
 0 382 l 1,0,-1
64 318 m 1,4,-1
 64 0 l 1,5,-1
 0 0 l 1,6,-1
 0 318 l 1,7,-1
 64 318 l 1,4,-1
EndSplineSet
EndChar

StartChar: section
Encoding: 167 167 86
Width: 550
Flags: W
LayerCount: 2
Fore
SplineSet
450 700 m 1,0,-1
 450 636 l 1,1,-1
 224 636 l 1,2,3
 218 470 218 470 186 378.5 c 128,-1,4
 154 287 154 287 112 287 c 0,5,6
 94 287 94 287 76 307 c 1,7,8
 90 188 90 188 124.5 126 c 128,-1,9
 159 64 159 64 225 64 c 2,10,-1
 305 64 l 1,11,-1
 305 350 l 1,12,-1
 370 350 l 1,13,-1
 370 64 l 1,14,-1
 450 64 l 1,15,-1
 450 0 l 1,16,-1
 225 0 l 2,17,18
 184 0 184 0 151 14 c 128,-1,19
 118 28 118 28 95 61.5 c 128,-1,20
 72 95 72 95 55 127.5 c 128,-1,21
 38 160 38 160 28 220 c 128,-1,22
 18 280 18 280 12 323 c 128,-1,23
 6 366 6 366 3.5 444.5 c 128,-1,24
 1 523 1 523 0.5 567.5 c 128,-1,25
 0 612 0 612 0 700 c 1,26,-1
 64 700 l 1,27,28
 64 592 64 592 71 513.5 c 128,-1,29
 78 435 78 435 89 398.5 c 128,-1,30
 100 362 100 362 112 362 c 0,31,32
 125 362 125 362 136 398.5 c 128,-1,33
 147 435 147 435 154 513.5 c 128,-1,34
 161 592 161 592 161 700 c 1,35,-1
 450 700 l 1,0,-1
EndSplineSet
EndChar

StartChar: logicalnot
Encoding: 172 172 87
Width: 600
Flags: W
LayerCount: 2
Fore
SplineSet
500 335 m 1,0,-1
 500 66 l 1,1,-1
 448 66 l 1,2,-1
 448 285 l 1,3,-1
 0 285 l 1,4,-1
 0 335 l 1,5,-1
 500 335 l 1,0,-1
EndSplineSet
EndChar

StartChar: uni00AD
Encoding: 173 173 88
Width: 250
Flags: W
LayerCount: 2
Fore
SplineSet
0 322 m 1,0,-1
 0 366 l 1,1,-1
 150 366 l 1,2,-1
 150 322 l 1,3,-1
 0 322 l 1,0,-1
EndSplineSet
EndChar

StartChar: degree
Encoding: 176 176 89
Width: 361
Flags: W
LayerCount: 2
Fore
SplineSet
64 350 m 1,0,-1
 130 220 l 1,1,-1
 131 220 l 1,2,-1
 197 350 l 1,3,-1
 131 480 l 1,4,-1
 130 480 l 1,5,-1
 64 350 l 1,0,-1
174 175 m 1,6,-1
 50 0 l 1,7,-1
 0 0 l 1,8,-1
 0 50 l 1,9,-1
 87 175 l 1,10,-1
 0 350 l 1,11,-1
 87 525 l 1,12,-1
 211 700 l 1,13,-1
 261 700 l 1,14,-1
 261 650 l 1,15,-1
 174 525 l 1,16,-1
 261 350 l 1,17,-1
 174 175 l 1,6,-1
EndSplineSet
EndChar

StartChar: mu
Encoding: 181 181 90
Width: 325
Flags: W
LayerCount: 2
Fore
SplineSet
145 636 m 1,0,-1
 145 64 l 1,1,-1
 225 64 l 1,2,-1
 225 0 l 1,3,-1
 0 0 l 1,4,-1
 0 64 l 1,5,-1
 80 64 l 1,6,-1
 80 636 l 1,7,-1
 0 636 l 1,8,-1
 0 700 l 1,9,-1
 225 700 l 1,10,-1
 225 636 l 1,11,-1
 145 636 l 1,0,-1
EndSplineSet
EndChar

StartChar: paragraph
Encoding: 182 182 91
Width: 550
Flags: W
LayerCount: 2
Fore
SplineSet
450 636 m 1,0,1
 370 636 370 636 370 64 c 1,2,-1
 450 64 l 1,3,-1
 450 0 l 1,4,-1
 225 0 l 1,5,-1
 225 64 l 1,6,-1
 305 64 l 1,7,8
 305 180 305 180 306 241 c 128,-1,9
 307 302 307 302 312 391 c 128,-1,10
 317 480 317 480 329 538.5 c 128,-1,11
 341 597 341 597 361 636 c 1,12,-1
 225 636 l 1,13,-1
 225 412 l 2,14,15
 225 217 225 217 191.5 108.5 c 128,-1,16
 158 0 158 0 112 0 c 0,17,18
 91 0 91 0 71 26.5 c 128,-1,19
 51 53 51 53 35 102.5 c 128,-1,20
 19 152 19 152 9.5 232.5 c 128,-1,21
 0 313 0 313 0 412 c 2,22,-1
 0 700 l 1,23,-1
 64 700 l 1,24,-1
 64 412 l 2,25,26
 64 304 64 304 71 225.5 c 128,-1,27
 78 147 78 147 89 110.5 c 128,-1,28
 100 74 100 74 112 74 c 0,29,30
 125 74 125 74 136 110.5 c 128,-1,31
 147 147 147 147 154 225.5 c 128,-1,32
 161 304 161 304 161 412 c 2,33,-1
 161 700 l 1,34,-1
 450 700 l 1,35,-1
 450 636 l 1,0,1
EndSplineSet
EndChar

StartChar: onequarter
Encoding: 188 188 92
Width: 325
Flags: W
LayerCount: 2
Fore
SplineSet
80 550 m 1,0,-1
 80 700 l 1,1,-1
 145 700 l 1,2,-1
 145 550 l 1,3,-1
 225 550 l 1,4,-1
 225 486 l 1,5,-1
 64 486 l 1,6,-1
 64 169 l 2,7,8
 64 124 64 124 78 99.5 c 128,-1,9
 92 75 92 75 112 75 c 128,-1,10
 132 75 132 75 146.5 99.5 c 128,-1,11
 161 124 161 124 161 169 c 2,12,-1
 161 315 l 1,13,-1
 225 315 l 1,14,-1
 225 169 l 2,15,16
 225 103 225 103 202.5 62 c 128,-1,17
 180 21 180 21 145 7 c 1,18,-1
 145 0 l 1,19,-1
 225 0 l 1,20,-1
 225 -64 l 1,21,-1
 145 -64 l 1,22,-1
 145 -128 l 1,23,-1
 80 -128 l 1,24,-1
 80 -64 l 1,25,-1
 0 -64 l 1,26,-1
 0 0 l 1,27,-1
 80 0 l 1,28,-1
 80 7 l 1,29,30
 45 21 45 21 22.5 62 c 128,-1,31
 0 103 0 103 0 169 c 2,32,-1
 0 550 l 1,33,-1
 80 550 l 1,0,-1
EndSplineSet
EndChar

StartChar: onehalf
Encoding: 189 189 93
Width: 325
Flags: W
LayerCount: 2
Fore
SplineSet
145 572 m 1,0,-1
 145 0 l 1,1,-1
 225 0 l 1,2,-1
 225 -64 l 1,3,-1
 145 -64 l 1,4,-1
 145 -128 l 1,5,-1
 80 -128 l 1,6,-1
 80 -64 l 1,7,-1
 0 -64 l 1,8,-1
 0 0 l 1,9,-1
 80 0 l 1,10,-1
 80 572 l 1,11,12
 64 513 64 513 64 400 c 1,13,-1
 0 400 l 1,14,15
 0 542 0 542 33 621 c 128,-1,16
 66 700 66 700 112 700 c 128,-1,17
 158 700 158 700 191.5 621 c 128,-1,18
 225 542 225 542 225 400 c 1,19,-1
 161 400 l 1,20,21
 161 513 161 513 145 572 c 1,0,-1
EndSplineSet
EndChar

StartChar: threequarters
Encoding: 190 190 94
Width: 325
Flags: W
LayerCount: 2
Fore
SplineSet
0 636 m 1,0,-1
 0 700 l 1,1,-1
 225 700 l 1,2,-1
 225 636 l 1,3,-1
 0 636 l 1,0,-1
0 0 m 1,4,-1
 225 0 l 1,5,-1
 225 -64 l 1,6,-1
 145 -64 l 1,7,-1
 145 -128 l 1,8,-1
 80 -128 l 1,9,-1
 80 -64 l 1,10,-1
 0 -64 l 1,11,-1
 0 0 l 1,4,-1
EndSplineSet
EndChar

StartChar: Aring
Encoding: 197 197 97
Width: 325
Flags: W
LayerCount: 2
Fore
SplineSet
0 700 m 1,0,-1
 64 700 l 1,1,-1
 64 350 l 1,2,-1
 225 350 l 1,3,-1
 225 0 l 1,4,-1
 161 0 l 1,5,-1
 161 286 l 1,6,-1
 0 286 l 1,7,-1
 0 700 l 1,0,-1
EndSplineSet
EndChar

StartChar: AE
Encoding: 198 198 98
Width: 325
Flags: W
LayerCount: 2
Fore
SplineSet
0 700 m 1,0,-1
 225 700 l 1,1,-1
 225 636 l 1,2,-1
 64 636 l 1,3,-1
 64 64 l 1,4,-1
 225 64 l 1,5,-1
 225 0 l 1,6,-1
 0 0 l 1,7,-1
 0 700 l 1,0,-1
EndSplineSet
EndChar

StartChar: Eth
Encoding: 208 208 101
Width: 325
Flags: W
LayerCount: 2
Fore
SplineSet
0 0 m 1,0,-1
 0 700 l 1,1,-1
 64 700 l 1,2,-1
 64 64 l 1,3,-1
 161 64 l 1,4,-1
 161 700 l 1,5,-1
 225 700 l 1,6,-1
 225 0 l 1,7,-1
 0 0 l 1,0,-1
EndSplineSet
EndChar

StartChar: multiply
Encoding: 215 215 103
Width: 426
Flags: W
LayerCount: 2
Fore
SplineSet
28 177 m 1,0,-1
 0 205 l 1,1,-1
 135 340 l 1,2,-1
 0 475 l 1,3,-1
 29 504 l 1,4,-1
 163 369 l 1,5,-1
 298 504 l 1,6,-1
 326 475 l 1,7,-1
 191 340 l 1,8,-1
 326 205 l 1,9,-1
 299 177 l 1,10,-1
 163 312 l 1,11,-1
 28 177 l 1,0,-1
EndSplineSet
EndChar

StartChar: Oslash
Encoding: 216 216 104
Width: 325
Flags: W
LayerCount: 2
Fore
SplineSet
225 700 m 1,0,-1
 225 636 l 1,1,-1
 145 636 l 1,2,-1
 145 64 l 1,3,-1
 225 64 l 1,4,-1
 225 0 l 1,5,-1
 0 0 l 1,6,-1
 0 64 l 1,7,-1
 80 64 l 1,8,-1
 80 700 l 1,9,-1
 225 700 l 1,0,-1
EndSplineSet
EndChar

StartChar: Uacute
Encoding: 218 218 105
Width: 325
Flags: W
LayerCount: 2
Fore
SplineSet
225 700 m 1,0,-1
 225 287 l 1,1,-1
 64 287 l 1,2,-1
 64 0 l 1,3,-1
 0 0 l 1,4,-1
 0 351 l 1,5,-1
 162 351 l 1,6,-1
 162 636 l 1,7,-1
 0 636 l 1,8,-1
 0 700 l 1,9,-1
 225 700 l 1,0,-1
EndSplineSet
EndChar

StartChar: aring
Encoding: 229 229 108
Width: 325
Flags: W
LayerCount: 2
Fore
SplineSet
0 700 m 1,0,-1
 64 700 l 1,1,2
 64 350 64 350 161 350 c 2,3,-1
 225 350 l 1,4,-1
 225 0 l 1,5,-1
 161 0 l 1,6,-1
 161 286 l 1,7,8
 131 286 131 286 107.5 294.5 c 128,-1,9
 84 303 84 303 67.5 322.5 c 128,-1,10
 51 342 51 342 39 361.5 c 128,-1,11
 27 381 27 381 20 416.5 c 128,-1,12
 13 452 13 452 8.5 477 c 128,-1,13
 4 502 4 502 2.5 548.5 c 128,-1,14
 1 595 1 595 0.5 621.5 c 128,-1,15
 0 648 0 648 0 700 c 1,0,-1
EndSplineSet
EndChar

StartChar: ae
Encoding: 230 230 109
Width: 325
Flags: W
LayerCount: 2
Fore
SplineSet
225 0 m 1,0,1
 134 0 134 0 67 92.5 c 128,-1,2
 0 185 0 185 0 350 c 128,-1,3
 0 515 0 515 67 607.5 c 128,-1,4
 134 700 134 700 225 700 c 1,5,-1
 225 636 l 1,6,7
 159 636 159 636 111.5 563.5 c 128,-1,8
 64 491 64 491 64 350 c 128,-1,9
 64 209 64 209 111.5 136.5 c 128,-1,10
 159 64 159 64 225 64 c 1,11,-1
 225 0 l 1,0,1
EndSplineSet
EndChar

StartChar: eacute
Encoding: 233 233 111
Width: 325
Flags: W
LayerCount: 2
Fore
SplineSet
225 0 m 1,0,-1
 161 0 l 1,1,2
 161 72 161 72 154 124.5 c 128,-1,3
 147 177 147 177 136 201 c 128,-1,4
 125 225 125 225 112 225 c 0,5,6
 100 225 100 225 89 201 c 128,-1,7
 78 177 78 177 71 124.5 c 128,-1,8
 64 72 64 72 64 0 c 1,9,-1
 0 0 l 1,10,-1
 0 700 l 1,11,-1
 64 700 l 1,12,-1
 64 274 l 1,13,14
 87 300 87 300 112 300 c 0,15,16
 158 300 158 300 191.5 221 c 128,-1,17
 225 142 225 142 225 0 c 1,0,-1
225 700 m 1,18,-1
 200 525 l 1,19,-1
 136 525 l 1,20,-1
 161 700 l 1,21,-1
 225 700 l 1,18,-1
EndSplineSet
EndChar

StartChar: eth
Encoding: 240 240 112
Width: 325
Flags: W
LayerCount: 2
Fore
SplineSet
161 412 m 2,0,-1
 161 700 l 1,1,-1
 225 700 l 1,2,-1
 225 412 l 2,3,4
 225 281 225 281 208 184.5 c 128,-1,5
 191 88 191 88 166 44 c 128,-1,6
 141 0 141 0 112 0 c 0,7,8
 91 0 91 0 71 26.5 c 128,-1,9
 51 53 51 53 35 102.5 c 128,-1,10
 19 152 19 152 9.5 232.5 c 128,-1,11
 0 313 0 313 0 412 c 2,12,-1
 0 700 l 1,13,-1
 64 700 l 1,14,-1
 64 412 l 2,15,16
 64 304 64 304 71 225.5 c 128,-1,17
 78 147 78 147 89 110.5 c 128,-1,18
 100 74 100 74 112 74 c 128,-1,19
 124 74 124 74 135 110.5 c 128,-1,20
 146 147 146 147 153.5 226 c 128,-1,21
 161 305 161 305 161 412 c 2,0,-1
EndSplineSet
EndChar

StartChar: divide
Encoding: 247 247 114
Width: 444
Flags: W
LayerCount: 2
Fore
SplineSet
148 162 m 1,0,-1
 148 244 l 1,1,-1
 197 244 l 1,2,-1
 197 162 l 1,3,-1
 148 162 l 1,0,-1
0 323 m 1,4,-1
 0 365 l 1,5,-1
 344 365 l 1,6,-1
 344 323 l 1,7,-1
 0 323 l 1,4,-1
148 442 m 1,8,-1
 148 523 l 1,9,-1
 197 523 l 1,10,-1
 197 442 l 1,11,-1
 148 442 l 1,8,-1
EndSplineSet
EndChar

StartChar: oslash
Encoding: 248 248 115
Width: 325
Flags: W
LayerCount: 2
Fore
SplineSet
0 0 m 1,0,-1
 0 64 l 1,1,-1
 80 64 l 1,2,3
 80 170 80 170 81 224 c 128,-1,4
 82 278 82 278 85.5 367.5 c 128,-1,5
 89 457 89 457 98.5 504 c 128,-1,6
 108 551 108 551 123 603 c 128,-1,7
 138 655 138 655 164 677.5 c 128,-1,8
 190 700 190 700 225 700 c 1,9,-1
 225 636 l 1,10,11
 145 636 145 636 145 64 c 1,12,-1
 225 64 l 1,13,-1
 225 0 l 1,14,-1
 0 0 l 1,0,-1
EndSplineSet
EndChar

StartChar: uacute
Encoding: 250 250 116
Width: 325
Flags: W
LayerCount: 2
Fore
SplineSet
64 287 m 1,0,-1
 64 0 l 1,1,-1
 0 0 l 1,2,-1
 0 351 l 1,3,-1
 64 351 l 2,4,5
 110 351 110 351 136 393.5 c 128,-1,6
 162 436 162 436 162 494 c 128,-1,7
 162 552 162 552 136 594 c 128,-1,8
 110 636 110 636 64 636 c 2,9,-1
 0 636 l 1,10,-1
 0 700 l 1,11,-1
 64 700 l 2,12,13
 140 700 140 700 182.5 639 c 128,-1,14
 225 578 225 578 225 494 c 0,15,16
 225 409 225 409 182.5 348 c 128,-1,17
 140 287 140 287 64 287 c 1,0,-1
EndSplineSet
EndChar

StartChar: thorn
Encoding: 254 254 117
Width: 164
Flags: W
LayerCount: 2
Fore
SplineSet
64 338 m 1,0,-1
 64 0 l 1,1,-1
 0 0 l 1,2,-1
 0 338 l 1,3,-1
 64 338 l 1,0,-1
64 700 m 1,4,-1
 64 525 l 1,5,-1
 0 525 l 1,6,-1
 0 700 l 1,7,-1
 64 700 l 1,4,-1
EndSplineSet
EndChar

StartChar: uni0401
Encoding: 1025 1025 120
Width: 650
Flags: W
LayerCount: 2
Fore
SplineSet
437 210 m 1,0,-1
 389 0 l 1,1,-1
 325 0 l 1,2,-1
 405 348 l 1,3,-1
 405 352 l 1,4,-1
 325 700 l 1,5,-1
 389 700 l 1,6,-1
 437 490 l 1,7,-1
 438 490 l 1,8,-1
 486 700 l 1,9,-1
 550 700 l 1,10,-1
 470 352 l 1,11,-1
 470 348 l 1,12,-1
 550 0 l 1,13,-1
 486 0 l 1,14,-1
 438 210 l 1,15,-1
 437 210 l 1,0,-1
0 0 m 1,16,-1
 0 700 l 1,17,-1
 225 700 l 1,18,-1
 225 350 l 1,19,-1
 161 350 l 1,20,-1
 161 636 l 1,21,-1
 64 636 l 1,22,-1
 64 64 l 1,23,-1
 161 64 l 1,24,-1
 161 0 l 1,25,-1
 0 0 l 1,16,-1
EndSplineSet
EndChar

StartChar: uni0410
Encoding: 1040 1040 121
Width: 325
Flags: W
LayerCount: 2
Fore
SplineSet
225 700 m 1,0,-1
 225 0 l 1,1,-1
 161 0 l 1,2,-1
 161 350 l 1,3,-1
 0 350 l 1,4,-1
 0 414 l 1,5,-1
 161 414 l 1,6,-1
 161 636 l 1,7,-1
 0 636 l 1,8,-1
 0 700 l 1,9,-1
 225 700 l 1,0,-1
EndSplineSet
EndChar

StartChar: uni0411
Encoding: 1041 1041 122
Width: 325
Flags: W
LayerCount: 2
Fore
SplineSet
0 0 m 1,0,-1
 0 64 l 1,1,-1
 161 64 l 1,2,-1
 161 461 l 1,3,-1
 0 461 l 1,4,-1
 0 525 l 1,5,-1
 161 525 l 1,6,-1
 161 636 l 1,7,-1
 0 636 l 1,8,-1
 0 700 l 1,9,-1
 225 700 l 1,10,-1
 225 0 l 1,11,-1
 0 0 l 1,0,-1
EndSplineSet
EndChar

StartChar: uni0412
Encoding: 1042 1042 123
Width: 325
Flags: W
LayerCount: 2
Fore
SplineSet
0 0 m 1,0,-1
 0 64 l 1,1,-1
 161 64 l 1,2,-1
 161 636 l 1,3,-1
 0 636 l 1,4,-1
 0 700 l 1,5,-1
 225 700 l 1,6,-1
 225 0 l 1,7,-1
 0 0 l 1,0,-1
EndSplineSet
EndChar

StartChar: uni0413
Encoding: 1043 1043 124
Width: 325
Flags: W
LayerCount: 2
Fore
SplineSet
0 0 m 1,0,-1
 0 700 l 1,1,-1
 64 700 l 1,2,-1
 64 64 l 1,3,-1
 225 64 l 1,4,-1
 225 0 l 1,5,-1
 0 0 l 1,0,-1
225 700 m 1,6,-1
 225 525 l 1,7,-1
 161 525 l 1,8,-1
 161 700 l 1,9,-1
 225 700 l 1,6,-1
EndSplineSet
EndChar

StartChar: uni0414
Encoding: 1044 1044 125
Width: 325
Flags: W
LayerCount: 2
Fore
SplineSet
225 326 m 1,0,-1
 225 0 l 1,1,-1
 161 0 l 1,2,-1
 161 262 l 1,3,-1
 64 262 l 1,4,-1
 64 0 l 1,5,-1
 0 0 l 1,6,-1
 0 326 l 1,7,-1
 80 326 l 1,8,-1
 80 636 l 1,9,-1
 0 636 l 1,10,-1
 0 700 l 1,11,-1
 225 700 l 1,12,-1
 225 636 l 1,13,-1
 145 636 l 1,14,-1
 145 326 l 1,15,-1
 225 326 l 1,0,-1
EndSplineSet
EndChar

StartChar: uni0415
Encoding: 1045 1045 126
Width: 325
Flags: W
LayerCount: 2
Fore
SplineSet
225 0 m 1,0,-1
 161 0 l 1,1,-1
 161 225 l 1,2,-1
 64 225 l 1,3,-1
 64 0 l 1,4,-1
 0 0 l 1,5,-1
 0 700 l 1,6,-1
 64 700 l 1,7,-1
 64 300 l 1,8,-1
 225 300 l 1,9,-1
 225 0 l 1,0,-1
161 700 m 1,10,-1
 225 700 l 1,11,-1
 225 525 l 1,12,-1
 161 525 l 1,13,-1
 161 700 l 1,10,-1
EndSplineSet
EndChar

StartChar: uni0416
Encoding: 1046 1046 127
Width: 325
Flags: W
LayerCount: 2
Fore
SplineSet
225 0 m 1,0,-1
 161 0 l 1,1,-1
 161 350 l 1,2,-1
 0 350 l 1,3,-1
 0 700 l 1,4,-1
 225 700 l 1,5,-1
 225 636 l 1,6,-1
 64 636 l 1,7,-1
 64 414 l 1,8,-1
 225 414 l 1,9,-1
 225 0 l 1,0,-1
EndSplineSet
EndChar

StartChar: uni0417
Encoding: 1047 1047 128
Width: 325
Flags: W
LayerCount: 2
Fore
SplineSet
0 700 m 1,0,-1
 225 700 l 1,1,-1
 225 636 l 1,2,-1
 64 636 l 1,3,-1
 64 413 l 1,4,-1
 225 413 l 1,5,-1
 225 0 l 1,6,-1
 161 0 l 1,7,-1
 161 338 l 1,8,-1
 64 338 l 1,9,-1
 64 0 l 1,10,-1
 0 0 l 1,11,-1
 0 700 l 1,0,-1
EndSplineSet
EndChar

StartChar: uni0418
Encoding: 1048 1048 129
Width: 325
Flags: W
LayerCount: 2
Fore
SplineSet
0 636 m 1,0,-1
 0 700 l 1,1,-1
 225 700 l 1,2,-1
 225 636 l 1,3,-1
 0 636 l 1,0,-1
0 0 m 1,4,-1
 0 64 l 1,5,-1
 80 64 l 1,6,-1
 80 350 l 1,7,-1
 145 350 l 1,8,-1
 145 64 l 1,9,-1
 225 64 l 1,10,-1
 225 0 l 1,11,-1
 0 0 l 1,4,-1
EndSplineSet
EndChar

StartChar: uni0419
Encoding: 1049 1049 130
Width: 325
Flags: W
LayerCount: 2
Fore
SplineSet
0 0 m 1,0,-1
 0 700 l 1,1,-1
 225 700 l 1,2,-1
 225 350 l 1,3,-1
 161 350 l 1,4,-1
 161 636 l 1,5,-1
 64 636 l 1,6,-1
 64 64 l 1,7,-1
 161 64 l 1,8,-1
 161 0 l 1,9,-1
 0 0 l 1,0,-1
EndSplineSet
EndChar

StartChar: uni041A
Encoding: 1050 1050 131
Width: 325
Flags: W
LayerCount: 2
Fore
SplineSet
0 287 m 1,0,-1
 0 700 l 1,1,-1
 64 700 l 1,2,-1
 64 362 l 1,3,-1
 161 362 l 1,4,-1
 161 700 l 1,5,-1
 225 700 l 1,6,-1
 225 0 l 1,7,-1
 0 0 l 1,8,-1
 0 64 l 1,9,-1
 161 64 l 1,10,-1
 161 287 l 1,11,-1
 0 287 l 1,0,-1
EndSplineSet
EndChar

StartChar: uni041B
Encoding: 1051 1051 132
Width: 325
Flags: W
LayerCount: 2
Fore
SplineSet
0 700 m 1,0,-1
 64 700 l 1,1,-1
 64 278 l 1,2,-1
 161 700 l 1,3,-1
 225 700 l 1,4,-1
 225 0 l 1,5,-1
 161 0 l 1,6,-1
 161 422 l 1,7,-1
 64 0 l 1,8,-1
 0 0 l 1,9,-1
 0 700 l 1,0,-1
EndSplineSet
EndChar

StartChar: uni041C
Encoding: 1052 1052 133
Width: 325
Flags: W
LayerCount: 2
Fore
SplineSet
0 302 m 1,0,-1
 0 700 l 1,1,-1
 64 700 l 1,2,-1
 64 362 l 1,3,-1
 161 362 l 1,4,-1
 161 700 l 1,5,-1
 225 700 l 1,6,-1
 225 302 l 1,7,-1
 145 302 l 1,8,-1
 145 64 l 1,9,-1
 225 64 l 1,10,-1
 225 0 l 1,11,-1
 0 0 l 1,12,-1
 0 64 l 1,13,-1
 80 64 l 1,14,-1
 80 302 l 1,15,-1
 0 302 l 1,0,-1
EndSplineSet
EndChar

StartChar: uni041D
Encoding: 1053 1053 134
Width: 325
Flags: W
LayerCount: 2
Fore
SplineSet
225 700 m 1,0,-1
 79 64 l 1,1,-1
 225 64 l 1,2,-1
 225 0 l 1,3,-1
 0 0 l 1,4,-1
 146 636 l 1,5,-1
 0 636 l 1,6,-1
 0 700 l 1,7,-1
 225 700 l 1,0,-1
EndSplineSet
EndChar

StartChar: uni041E
Encoding: 1054 1054 135
Width: 325
Flags: W
LayerCount: 2
Fore
SplineSet
112 210 m 1,0,-1
 64 0 l 1,1,-1
 0 0 l 1,2,-1
 80 348 l 1,3,-1
 80 352 l 1,4,-1
 0 700 l 1,5,-1
 64 700 l 1,6,-1
 112 490 l 1,7,-1
 113 490 l 1,8,-1
 161 700 l 1,9,-1
 225 700 l 1,10,-1
 145 352 l 1,11,-1
 145 348 l 1,12,-1
 225 0 l 1,13,-1
 161 0 l 1,14,-1
 113 210 l 1,15,-1
 112 210 l 1,0,-1
EndSplineSet
EndChar

StartChar: uni041F
Encoding: 1055 1055 136
Width: 325
Flags: W
LayerCount: 2
Fore
SplineSet
225 0 m 1,0,-1
 161 0 l 1,1,-1
 161 175 l 1,2,-1
 225 175 l 1,3,-1
 225 0 l 1,0,-1
225 700 m 1,4,-1
 225 525 l 1,5,-1
 161 525 l 1,6,-1
 161 700 l 1,7,-1
 225 700 l 1,4,-1
0 700 m 1,8,-1
 64 700 l 1,9,-1
 64 0 l 1,10,-1
 0 0 l 1,11,-1
 0 700 l 1,8,-1
EndSplineSet
EndChar

StartChar: uni0420
Encoding: 1056 1056 137
Width: 325
Flags: W
LayerCount: 2
Fore
SplineSet
0 700 m 1,0,-1
 225 700 l 1,1,-1
 225 636 l 1,2,-1
 0 636 l 1,3,-1
 0 700 l 1,0,-1
0 0 m 1,4,-1
 0 412 l 1,5,-1
 64 412 l 1,6,-1
 64 75 l 1,7,-1
 161 75 l 1,8,-1
 161 412 l 1,9,-1
 225 412 l 1,10,-1
 225 0 l 1,11,-1
 0 0 l 1,4,-1
EndSplineSet
EndChar

StartChar: uni0421
Encoding: 1057 1057 138
Width: 325
Flags: W
LayerCount: 2
Fore
SplineSet
225 400 m 1,0,-1
 64 400 l 1,1,-1
 64 0 l 1,2,-1
 0 0 l 1,3,-1
 0 700 l 1,4,-1
 64 700 l 1,5,-1
 64 475 l 1,6,-1
 161 475 l 1,7,-1
 161 700 l 1,8,-1
 225 700 l 1,9,-1
 225 400 l 1,0,-1
EndSplineSet
EndChar

StartChar: uni0422
Encoding: 1058 1058 139
Width: 325
Flags: W
LayerCount: 2
Fore
SplineSet
225 338 m 1,0,-1
 225 0 l 1,1,-1
 161 0 l 1,2,-1
 161 262 l 1,3,-1
 64 262 l 1,4,-1
 64 0 l 1,5,-1
 0 0 l 1,6,-1
 0 338 l 1,7,-1
 225 338 l 1,0,-1
64 700 m 1,8,-1
 64 525 l 1,9,-1
 0 525 l 1,10,-1
 0 700 l 1,11,-1
 64 700 l 1,8,-1
161 700 m 1,12,-1
 225 700 l 1,13,-1
 225 525 l 1,14,-1
 161 525 l 1,15,-1
 161 700 l 1,12,-1
EndSplineSet
EndChar

StartChar: uni0423
Encoding: 1059 1059 140
Width: 325
Flags: W
LayerCount: 2
Fore
SplineSet
64 0 m 1,0,-1
 0 0 l 1,1,-1
 0 175 l 1,2,-1
 64 175 l 1,3,-1
 64 0 l 1,0,-1
225 700 m 1,4,-1
 225 0 l 1,5,-1
 161 0 l 1,6,-1
 161 636 l 1,7,-1
 0 636 l 1,8,-1
 0 700 l 1,9,-1
 225 700 l 1,4,-1
EndSplineSet
EndChar

StartChar: uni0424
Encoding: 1060 1060 141
Width: 325
Flags: W
LayerCount: 2
Fore
SplineSet
225 700 m 1,0,-1
 225 0 l 1,1,-1
 161 0 l 1,2,-1
 161 636 l 1,3,-1
 0 636 l 1,4,-1
 0 700 l 1,5,-1
 225 700 l 1,0,-1
EndSplineSet
EndChar

StartChar: uni0425
Encoding: 1061 1061 142
Width: 325
Flags: W
LayerCount: 2
Fore
SplineSet
225 0 m 1,0,-1
 161 0 l 1,1,-1
 161 338 l 1,2,-1
 64 338 l 1,3,-1
 64 0 l 1,4,-1
 0 0 l 1,5,-1
 0 413 l 1,6,-1
 161 413 l 1,7,-1
 161 636 l 1,8,-1
 0 636 l 1,9,-1
 0 700 l 1,10,-1
 225 700 l 1,11,-1
 225 0 l 1,0,-1
EndSplineSet
EndChar

StartChar: uni0426
Encoding: 1062 1062 143
Width: 325
Flags: W
LayerCount: 2
Fore
SplineSet
225 624 m 1,0,-1
 64 624 l 1,1,-1
 64 0 l 1,2,-1
 0 0 l 1,3,-1
 0 700 l 1,4,-1
 225 700 l 1,5,-1
 225 624 l 1,0,-1
225 350 m 1,6,-1
 225 0 l 1,7,-1
 161 0 l 1,8,-1
 161 350 l 1,9,-1
 225 350 l 1,6,-1
EndSplineSet
EndChar

StartChar: uni0427
Encoding: 1063 1063 144
Width: 325
Flags: W
LayerCount: 2
Fore
SplineSet
64 700 m 1,0,-1
 64 525 l 1,1,-1
 0 525 l 1,2,-1
 0 700 l 1,3,-1
 64 700 l 1,0,-1
161 700 m 1,4,-1
 225 700 l 1,5,-1
 225 525 l 1,6,-1
 161 525 l 1,7,-1
 161 700 l 1,4,-1
0 0 m 1,8,-1
 0 338 l 1,9,-1
 64 338 l 1,10,-1
 64 75 l 1,11,-1
 161 75 l 1,12,-1
 161 338 l 1,13,-1
 225 338 l 1,14,-1
 225 0 l 1,15,-1
 0 0 l 1,8,-1
EndSplineSet
EndChar

StartChar: uni0428
Encoding: 1064 1064 145
Width: 325
Flags: W
LayerCount: 2
Fore
SplineSet
0 700 m 1,0,-1
 225 700 l 1,1,-1
 225 0 l 1,2,-1
 161 0 l 1,3,-1
 161 624 l 1,4,-1
 64 624 l 1,5,-1
 64 0 l 1,6,-1
 0 0 l 1,7,-1
 0 700 l 1,0,-1
EndSplineSet
EndChar

StartChar: uni0429
Encoding: 1065 1065 146
Width: 325
Flags: W
LayerCount: 2
Fore
SplineSet
225 0 m 1,0,-1
 225 64 l 1,1,-1
 64 64 l 1,2,-1
 64 461 l 1,3,-1
 225 461 l 1,4,-1
 225 525 l 1,5,-1
 64 525 l 1,6,-1
 64 636 l 1,7,-1
 225 636 l 1,8,-1
 225 700 l 1,9,-1
 0 700 l 1,10,-1
 0 0 l 1,11,-1
 225 0 l 1,0,-1
EndSplineSet
EndChar

StartChar: uni042B
Encoding: 1067 1067 147
Width: 325
Flags: W
LayerCount: 2
Fore
SplineSet
0 636 m 1,0,-1
 0 700 l 1,1,-1
 225 700 l 1,2,-1
 225 636 l 1,3,-1
 0 636 l 1,0,-1
0 350 m 1,4,-1
 65 350 l 1,5,-1
 65 64 l 1,6,-1
 225 64 l 1,7,-1
 225 0 l 1,8,-1
 0 0 l 1,9,-1
 0 350 l 1,4,-1
EndSplineSet
EndChar

StartChar: uni042D
Encoding: 1069 1069 148
Width: 325
Flags: W
LayerCount: 2
Fore
SplineSet
0 700 m 1,0,-1
 225 700 l 1,1,-1
 225 636 l 1,2,-1
 64 636 l 1,3,-1
 64 64 l 1,4,-1
 225 64 l 1,5,-1
 225 0 l 1,6,-1
 0 0 l 1,7,-1
 0 700 l 1,0,-1
EndSplineSet
EndChar

StartChar: uni042E
Encoding: 1070 1070 149
Width: 325
Flags: W
LayerCount: 2
Fore
SplineSet
225 350 m 1,0,-1
 161 350 l 1,1,-1
 161 636 l 1,2,-1
 64 636 l 1,3,-1
 64 350 l 1,4,-1
 0 350 l 1,5,-1
 0 700 l 1,6,-1
 225 700 l 1,7,-1
 225 350 l 1,0,-1
0 0 m 1,8,-1
 0 64 l 1,9,-1
 80 64 l 1,10,-1
 80 350 l 1,11,-1
 145 350 l 1,12,-1
 145 64 l 1,13,-1
 225 64 l 1,14,-1
 225 0 l 1,15,-1
 0 0 l 1,8,-1
EndSplineSet
EndChar

StartChar: uni042F
Encoding: 1071 1071 150
Width: 325
Flags: W
LayerCount: 2
Fore
SplineSet
64 350 m 1,0,-1
 64 64 l 1,1,-1
 161 64 l 1,2,-1
 161 0 l 1,3,-1
 0 0 l 1,4,-1
 0 700 l 1,5,-1
 225 700 l 1,6,-1
 225 350 l 1,7,-1
 64 350 l 1,0,-1
64 414 m 1,8,-1
 161 414 l 1,9,-1
 161 636 l 1,10,-1
 64 636 l 1,11,-1
 64 414 l 1,8,-1
EndSplineSet
EndChar

StartChar: uni0436
Encoding: 1078 1078 157
Width: 325
Flags: W
LayerCount: 2
Fore
SplineSet
161 287 m 1,0,-1
 161 0 l 1,1,-1
 225 0 l 1,2,-1
 225 351 l 1,3,-1
 161 351 l 2,4,5
 115 351 115 351 89 393.5 c 128,-1,6
 63 436 63 436 63 494 c 128,-1,7
 63 552 63 552 89 594 c 128,-1,8
 115 636 115 636 161 636 c 2,9,-1
 225 636 l 1,10,-1
 225 700 l 1,11,-1
 161 700 l 2,12,13
 85 700 85 700 42.5 639 c 128,-1,14
 0 578 0 578 0 494 c 0,15,16
 0 409 0 409 42.5 348 c 128,-1,17
 85 287 85 287 161 287 c 1,0,-1
EndSplineSet
EndChar

StartChar: uni0439
Encoding: 1081 1081 160
Width: 325
Flags: W
LayerCount: 2
Fore
SplineSet
0 350 m 0,0,1
 0 509 0 509 33.5 598.5 c 128,-1,2
 67 688 67 688 112 688 c 0,3,4
 158 688 158 688 191.5 599 c 128,-1,5
 225 510 225 510 225 350 c 1,6,-1
 161 350 l 1,7,8
 161 434 161 434 154 495 c 128,-1,9
 147 556 147 556 136 584 c 128,-1,10
 125 612 125 612 112 612 c 0,11,12
 100 612 100 612 89 584 c 128,-1,13
 78 556 78 556 71 495 c 128,-1,14
 64 434 64 434 64 350 c 0,15,16
 64 202 64 202 81 133 c 128,-1,17
 98 64 98 64 150 64 c 1,18,-1
 150 0 l 1,19,20
 98 0 98 0 66.5 29.5 c 128,-1,21
 35 59 35 59 17.5 137 c 128,-1,22
 0 215 0 215 0 350 c 0,0,1
EndSplineSet
EndChar

StartChar: uni043F
Encoding: 1087 1087 166
Width: 325
Flags: W
LayerCount: 2
Fore
SplineSet
225 0 m 1,0,-1
 161 0 l 1,1,-1
 136 175 l 1,2,-1
 200 175 l 1,3,-1
 225 0 l 1,0,-1
225 700 m 1,4,-1
 200 525 l 1,5,-1
 136 525 l 1,6,-1
 161 700 l 1,7,-1
 225 700 l 1,4,-1
0 700 m 1,8,-1
 64 700 l 1,9,-1
 64 0 l 1,10,-1
 0 0 l 1,11,-1
 0 700 l 1,8,-1
EndSplineSet
EndChar

StartChar: uni0445
Encoding: 1093 1093 172
Width: 325
Flags: W
LayerCount: 2
Fore
SplineSet
0 636 m 1,0,-1
 0 700 l 1,1,2
 41 700 41 700 74 686 c 128,-1,3
 107 672 107 672 130 638.5 c 128,-1,4
 153 605 153 605 170 572.5 c 128,-1,5
 187 540 187 540 197 480 c 128,-1,6
 207 420 207 420 213 377 c 128,-1,7
 219 334 219 334 221.5 255.5 c 128,-1,8
 224 177 224 177 224.5 132.5 c 128,-1,9
 225 88 225 88 225 0 c 1,10,-1
 161 0 l 1,11,12
 161 107 161 107 153.5 186 c 128,-1,13
 146 265 146 265 135 301.5 c 128,-1,14
 124 338 124 338 112 338 c 128,-1,15
 100 338 100 338 89 301.5 c 128,-1,16
 78 265 78 265 71 186.5 c 128,-1,17
 64 108 64 108 64 0 c 1,18,-1
 0 0 l 1,19,20
 0 131 0 131 17 227.5 c 128,-1,21
 34 324 34 324 59 368.5 c 128,-1,22
 84 413 84 413 113 413 c 0,23,24
 131 413 131 413 149 393 c 1,25,26
 135 512 135 512 100.5 574 c 128,-1,27
 66 636 66 636 0 636 c 1,0,-1
EndSplineSet
EndChar

StartChar: uni0446
Encoding: 1094 1094 173
Width: 325
Flags: W
LayerCount: 2
Fore
SplineSet
225 350 m 1,0,-1
 225 0 l 1,1,-1
 161 0 l 1,2,-1
 161 350 l 1,3,-1
 225 350 l 1,0,-1
225 636 m 1,4,-1
 225 700 l 1,5,6
 184 700 184 700 151 686 c 128,-1,7
 118 672 118 672 95 638.5 c 128,-1,8
 72 605 72 605 55 572.5 c 128,-1,9
 38 540 38 540 28 480 c 128,-1,10
 18 420 18 420 12 377 c 128,-1,11
 6 334 6 334 3.5 255.5 c 128,-1,12
 1 177 1 177 0.5 132.5 c 128,-1,13
 0 88 0 88 0 0 c 1,14,-1
 64 0 l 1,15,16
 64 115 64 115 65 171.5 c 128,-1,17
 66 228 66 228 70 318 c 128,-1,18
 74 408 74 408 84 452 c 128,-1,19
 94 496 94 496 111.5 546 c 128,-1,20
 129 596 129 596 157.5 616 c 128,-1,21
 186 636 186 636 225 636 c 1,4,-1
EndSplineSet
EndChar

StartChar: uni0447
Encoding: 1095 1095 174
Width: 325
Flags: W
LayerCount: 2
Fore
SplineSet
0 412 m 1,0,-1
 64 412 l 1,1,2
 64 304 64 304 71 225.5 c 128,-1,3
 78 147 78 147 89 110.5 c 128,-1,4
 100 74 100 74 112 74 c 0,5,6
 125 74 125 74 136 110.5 c 128,-1,7
 147 147 147 147 154 225.5 c 128,-1,8
 161 304 161 304 161 412 c 1,9,-1
 225 412 l 1,10,11
 225 217 225 217 191.5 108.5 c 128,-1,12
 158 0 158 0 112 0 c 0,13,14
 91 0 91 0 71 26.5 c 128,-1,15
 51 53 51 53 35 102.5 c 128,-1,16
 19 152 19 152 9.5 232.5 c 128,-1,17
 0 313 0 313 0 412 c 1,0,-1
225 700 m 1,18,-1
 200 525 l 1,19,-1
 136 525 l 1,20,-1
 161 700 l 1,21,-1
 225 700 l 1,18,-1
0 700 m 1,22,-1
 64 700 l 1,23,-1
 89 525 l 1,24,-1
 25 525 l 1,25,-1
 0 700 l 1,22,-1
EndSplineSet
EndChar

StartChar: uni0449
Encoding: 1097 1097 176
Width: 325
Flags: W
LayerCount: 2
Fore
SplineSet
225 0 m 1,0,-1
 225 64 l 1,1,2
 159 64 159 64 111.5 136.5 c 128,-1,3
 64 209 64 209 64 350 c 0,4,5
 64 408 64 408 74 461 c 1,6,-1
 225 461 l 1,7,-1
 225 525 l 1,8,-1
 92 525 l 1,9,10
 114 580 114 580 149.5 608 c 128,-1,11
 185 636 185 636 225 636 c 1,12,-1
 225 700 l 1,13,14
 134 700 134 700 67 607.5 c 128,-1,15
 0 515 0 515 0 350 c 128,-1,16
 0 185 0 185 67 92.5 c 128,-1,17
 134 0 134 0 225 0 c 1,0,-1
EndSplineSet
EndChar

StartChar: uni044B
Encoding: 1099 1099 177
Width: 325
Flags: W
LayerCount: 2
Fore
SplineSet
0 636 m 1,0,-1
 0 700 l 1,1,-1
 225 700 l 1,2,-1
 225 636 l 1,3,-1
 0 636 l 1,0,-1
0 350 m 1,4,-1
 65 350 l 1,5,-1
 65 64 l 1,6,-1
 225 64 l 1,7,-1
 225 0 l 1,8,-1
 0 0 l 1,9,-1
 0 350 l 1,4,-1
EndSplineSet
EndChar

StartChar: uni044E
Encoding: 1102 1102 179
Width: 325
Flags: W
LayerCount: 2
Fore
SplineSet
0 350 m 1,0,1
 0 516 0 516 33 608 c 128,-1,2
 66 700 66 700 112 700 c 128,-1,3
 158 700 158 700 191.5 608 c 128,-1,4
 225 516 225 516 225 350 c 1,5,-1
 161 350 l 1,6,7
 161 438 161 438 154 502 c 128,-1,8
 147 566 147 566 136 595.5 c 128,-1,9
 125 625 125 625 112 625 c 0,10,11
 100 625 100 625 89 595.5 c 128,-1,12
 78 566 78 566 71 502 c 128,-1,13
 64 438 64 438 64 350 c 1,14,-1
 0 350 l 1,0,1
0 0 m 1,15,-1
 0 64 l 1,16,-1
 80 64 l 1,17,-1
 80 350 l 1,18,-1
 145 350 l 1,19,-1
 145 64 l 1,20,-1
 225 64 l 1,21,-1
 225 0 l 1,22,-1
 0 0 l 1,15,-1
EndSplineSet
EndChar

StartChar: uni044F
Encoding: 1103 1103 180
Width: 325
Flags: W
LayerCount: 2
Fore
SplineSet
64 350 m 1,0,-1
 64 64 l 1,1,-1
 161 64 l 1,2,-1
 161 0 l 1,3,-1
 0 0 l 1,4,-1
 0 700 l 1,5,-1
 225 700 l 1,6,-1
 225 350 l 1,7,-1
 64 350 l 1,0,-1
64 414 m 1,8,-1
 161 414 l 1,9,-1
 161 636 l 1,10,-1
 64 636 l 1,11,-1
 64 414 l 1,8,-1
EndSplineSet
EndChar

StartChar: emdash
Encoding: 8212 8212 183
Width: 667
Flags: W
LayerCount: 2
Fore
SplineSet
0 321 m 1,0,-1
 567 321 l 1,1,-1
 567 271 l 1,2,-1
 0 271 l 1,3,-1
 0 321 l 1,0,-1
EndSplineSet
EndChar
